<svg width="51" height="51" viewBox="0 0 51 51" fill="none" xmlns="http://www.w3.org/2000/svg">
<path d="M42.5184 0.000721713H8.48899C6.36338 -0.00159385 4.31442 0.794482 2.74794 2.23127C1.18146 3.66807 0.211717 5.64078 0.0307906 7.75867C-0.150136 9.87657 0.470946 11.9852 1.77102 13.6669C3.0711 15.3485 4.95534 16.4806 7.05054 16.8389V37.2941C7.05054 37.5335 7.14564 37.7631 7.31492 37.9323C7.4842 38.1016 7.71379 38.1967 7.95318 38.1967C8.19258 38.1967 8.42217 38.1016 8.59144 37.9323C8.76072 37.7631 8.85582 37.5335 8.85582 37.2941V16.9515C11.0384 16.8562 13.1002 15.923 14.6122 14.3461C16.1242 12.7693 16.9701 10.6702 16.9738 8.48551C16.9738 8.24611 16.8787 8.01652 16.7094 7.84725C16.5401 7.67797 16.3105 7.58287 16.0711 7.58287C15.8317 7.58287 15.6022 7.67797 15.4329 7.84725C15.2636 8.01652 15.1685 8.24611 15.1685 8.48551C15.1683 9.96277 14.6753 11.3977 13.7676 12.5633C14.0245 11.6648 14.0689 10.7189 13.8976 9.80027C13.7262 8.88164 13.3437 8.01542 12.7802 7.26997C12.2166 6.52452 11.4876 5.92026 10.6505 5.50486C9.81343 5.08947 8.89126 4.87432 7.95679 4.8764C7.7174 4.8764 7.48781 4.97151 7.31853 5.14078C7.14925 5.31006 7.05416 5.53965 7.05416 5.77904C7.05416 6.01844 7.14925 6.24803 7.31853 6.4173C7.48781 6.58658 7.7174 6.68168 7.95679 6.68168C9.05727 6.68245 10.1143 7.11118 10.9044 7.87721C11.6945 8.64324 12.1557 9.68652 12.1905 10.7864C12.2253 11.8864 11.8309 12.9567 11.0908 13.7711C10.3507 14.5856 9.32292 15.0803 8.22469 15.1506C6.47741 15.0826 4.82658 14.3317 3.62712 13.0593C2.42766 11.7869 1.77536 10.0947 1.81045 8.34647C1.84555 6.59822 2.56524 4.93355 3.8148 3.71035C5.06435 2.48714 6.744 1.8031 8.4926 1.80527H42.5184C44.267 1.8031 45.9466 2.48714 47.1962 3.71035C48.4458 4.93355 49.1655 6.59822 49.2005 8.34647C49.2356 10.0947 48.5833 11.7869 47.3839 13.0593C46.1844 14.3317 44.5336 15.0826 42.7863 15.1506C41.6883 15.0803 40.6607 14.5858 39.9206 13.7717C39.1805 12.9576 38.786 11.8876 38.8204 10.7879C38.8548 9.68819 39.3155 8.64496 40.105 7.8787C40.8946 7.11244 41.9511 6.68319 43.0513 6.68168C43.2907 6.68168 43.5203 6.58658 43.6896 6.4173C43.8589 6.24803 43.954 6.01844 43.954 5.77904C43.954 5.53965 43.8589 5.31006 43.6896 5.14078C43.5203 4.97151 43.2907 4.8764 43.0513 4.8764C42.1166 4.87372 41.1941 5.08836 40.3567 5.50338C39.5192 5.9184 38.7896 6.52244 38.2257 7.2678C37.6617 8.01316 37.2787 8.87943 37.107 9.79819C36.9353 10.717 36.9795 11.6631 37.2362 12.5618C36.3289 11.3964 35.8362 9.96172 35.836 8.48479C35.836 8.24539 35.7409 8.0158 35.5716 7.84653C35.4023 7.67725 35.1728 7.58215 34.9334 7.58215H21.1714C20.932 7.58215 20.7024 7.67725 20.5331 7.84653C20.3639 8.0158 20.2688 8.24539 20.2688 8.48479C20.2688 8.72418 20.3639 8.95377 20.5331 9.12305C20.7024 9.29233 20.932 9.38742 21.1714 9.38742H34.082C34.3074 11.4686 35.2931 13.3933 36.8501 14.7925C38.4071 16.1917 40.4258 16.967 42.5191 16.9696C42.6094 16.9696 42.6975 16.9587 42.787 16.9559C42.8766 16.953 42.9647 16.9696 43.0549 16.9696C43.116 16.964 43.1763 16.9519 43.2347 16.9335C45.4143 16.7487 47.4382 15.729 48.8837 14.0874C50.3293 12.4458 51.0848 10.3092 50.9924 8.12377C50.9001 5.93836 49.967 3.87312 48.3881 2.35934C46.8092 0.84555 44.7065 0.000264485 42.5191 0L42.5184 0.000721713Z" fill="#002F7D"/>
<path d="M47.0403 44.7484H6.36824V42.1084H45.5427C45.7821 42.1084 46.0117 42.0133 46.1809 41.844C46.3502 41.6747 46.4453 41.4451 46.4453 41.2057C46.4453 40.9663 46.3502 40.7368 46.1809 40.5675C46.0117 40.3982 45.7821 40.3031 45.5427 40.3031H43.954V20.084C43.954 19.8446 43.8589 19.615 43.6897 19.4458C43.5204 19.2765 43.2908 19.1814 43.0514 19.1814C42.812 19.1814 42.5824 19.2765 42.4131 19.4458C42.2439 19.615 42.1488 19.8446 42.1488 20.084V40.3031H5.4656C5.22621 40.3031 4.99662 40.3982 4.82734 40.5675C4.65806 40.7368 4.56296 40.9663 4.56296 41.2057V44.7484H3.96794C3.72855 44.7484 3.49896 44.8435 3.32969 45.0128C3.16041 45.1821 3.06531 45.4116 3.06531 45.651V50.0963C3.06531 50.3357 3.16041 50.5653 3.32969 50.7346C3.49896 50.9039 3.72855 50.999 3.96794 50.999H47.0403C47.2797 50.999 47.5093 50.9039 47.6786 50.7346C47.8479 50.5653 47.943 50.3357 47.943 50.0963V45.651C47.943 45.4116 47.8479 45.1821 47.6786 45.0128C47.5093 44.8435 47.2797 44.7484 47.0403 44.7484ZM46.1377 49.1937H4.87058V46.5537H46.1377V49.1937Z" fill="#002F7D"/>
<path d="M26.4067 32.1794V14.6235C26.4067 14.3841 26.3116 14.1545 26.1423 13.9852C25.9731 13.8159 25.7435 13.7208 25.5041 13.7208C25.2647 13.7208 25.0351 13.8159 24.8658 13.9852C24.6965 14.1545 24.6014 14.3841 24.6014 14.6235V32.1794C24.6014 32.4188 24.6965 32.6484 24.8658 32.8176C25.0351 32.9869 25.2647 33.082 25.5041 33.082C25.7435 33.082 25.9731 32.9869 26.1423 32.8176C26.3116 32.6484 26.4067 32.4188 26.4067 32.1794Z" fill="#002F7D"/>
<path d="M17.6208 35.7899V18.2339C17.6208 17.9945 17.5257 17.765 17.3564 17.5957C17.1871 17.4264 16.9575 17.3313 16.7181 17.3313C16.4787 17.3313 16.2491 17.4264 16.0799 17.5957C15.9106 17.765 15.8155 17.9945 15.8155 18.2339V35.7899C15.8155 36.0293 15.9106 36.2588 16.0799 36.4281C16.2491 36.5974 16.4787 36.6925 16.7181 36.6925C16.9575 36.6925 17.1871 36.5974 17.3564 36.4281C17.5257 36.2588 17.6208 36.0293 17.6208 35.7899Z" fill="#002F7D"/>
<path d="M35.1927 35.7899V18.2339C35.1927 17.9945 35.0976 17.765 34.9283 17.5957C34.759 17.4264 34.5294 17.3313 34.29 17.3313C34.0506 17.3313 33.821 17.4264 33.6518 17.5957C33.4825 17.765 33.3874 17.9945 33.3874 18.2339V35.7899C33.3874 36.0293 33.4825 36.2588 33.6518 36.4281C33.821 36.5974 34.0506 36.6925 34.29 36.6925C34.5294 36.6925 34.759 36.5974 34.9283 36.4281C35.0976 36.2588 35.1927 36.0293 35.1927 35.7899Z" fill="#002F7D"/>
</svg>
