<svg width="40" height="48" viewBox="0 0 40 48" fill="none" xmlns="http://www.w3.org/2000/svg">
<path d="M26.5777 18.5317H18.3926C18.2429 18.5317 18.0994 18.5912 17.9936 18.697C17.8878 18.8028 17.8284 18.9463 17.8284 19.0959C17.8284 19.2456 17.8878 19.3891 17.9936 19.4949C18.0994 19.6007 18.2429 19.6601 18.3926 19.6601H26.5777C26.7274 19.6601 26.8709 19.6007 26.9767 19.4949C27.0825 19.3891 27.1419 19.2456 27.1419 19.0959C27.1419 18.9463 27.0825 18.8028 26.9767 18.697C26.8709 18.5912 26.7274 18.5317 26.5777 18.5317Z" fill="#002F7D"/>
<path d="M25.1371 1.63182V0.56419L24.5729 0H15.1204L14.5476 0.56419V1.63182C7.69043 2.05713 0 10.034 0 20.2763C0.00229596 20.8411 0.228288 21.382 0.628479 21.7806C1.02867 22.1791 1.57048 22.4029 2.13528 22.4029H2.31755V23.1928L2.88174 23.757H4.35734L6.22352 48H33.4525L35.31 23.757H36.7942L37.3584 23.1928V22.4029H37.5407C38.1047 22.4029 38.6456 22.1788 39.0444 21.78C39.4432 21.3812 39.6673 20.8403 39.6673 20.2763C39.7194 10.034 31.9856 2.05713 25.1371 1.63182ZM15.6846 1.12838H24.0087V3.16817H15.6846V1.12838ZM3.45462 22.6286V21.0488H4.13165L4.25319 22.6286H3.45462ZM35.1537 18.5316H30.8137C30.6641 18.5316 30.5206 18.5911 30.4148 18.6969C30.309 18.8027 30.2496 18.9462 30.2496 19.0958C30.2496 19.2455 30.309 19.389 30.4148 19.4948C30.5206 19.6006 30.6641 19.66 30.8137 19.66H31.2477C30.6317 20.1469 30.1337 20.7667 29.791 21.4731C29.4482 22.1796 29.2697 22.9544 29.2687 23.7396V35.0235C29.2687 35.2104 29.2319 35.3956 29.1604 35.5683C29.0888 35.741 28.984 35.8979 28.8518 36.0301C28.7196 36.1623 28.5627 36.2671 28.39 36.3387C28.2173 36.4102 28.0322 36.447 27.8452 36.447C27.6583 36.447 27.4732 36.4102 27.3005 36.3387C27.1278 36.2671 26.9708 36.1623 26.8386 36.0301C26.7065 35.8979 26.6016 35.741 26.5301 35.5683C26.4585 35.3956 26.4217 35.2104 26.4217 35.0235V22.8022C26.4403 22.5097 26.3988 22.2166 26.2998 21.9408C26.2007 21.665 26.0461 21.4125 25.8456 21.1988C25.6451 20.9851 25.4029 20.8148 25.134 20.6984C24.8651 20.5819 24.5751 20.5219 24.2821 20.5219C23.9891 20.5219 23.6992 20.5819 23.4302 20.6984C23.1613 20.8148 22.9192 20.9851 22.7186 21.1988C22.5181 21.4125 22.3636 21.665 22.2645 21.9408C22.1654 22.2166 22.1239 22.5097 22.1425 22.8022V25.4061C22.1425 25.7837 21.9925 26.1458 21.7256 26.4127C21.4586 26.6797 21.0965 26.8297 20.719 26.8297C20.3414 26.8297 19.9794 26.6797 19.7124 26.4127C19.4455 26.1458 19.2955 25.7837 19.2955 25.4061V24.2951C19.2608 23.7512 19.0203 23.2409 18.6229 22.868C18.2254 22.4951 17.7009 22.2875 17.1559 22.2875C16.6109 22.2875 16.0863 22.4951 15.6889 22.868C15.2915 23.2409 15.051 23.7512 15.0163 24.2951V28.5222C15.0163 28.8998 14.8663 29.2619 14.5994 29.5288C14.3324 29.7958 13.9703 29.9458 13.5928 29.9458C13.2152 29.9458 12.8532 29.7958 12.5862 29.5288C12.3193 29.2619 12.1693 28.8998 12.1693 28.5222V23.6528C12.1694 22.886 11.9971 22.129 11.665 21.4379C11.333 20.7467 10.8497 20.1391 10.251 19.66H13.4105C13.5601 19.66 13.7036 19.6006 13.8095 19.4948C13.9153 19.389 13.9747 19.2455 13.9747 19.0958C13.9747 18.9462 13.9153 18.8027 13.8095 18.6969C13.7036 18.5911 13.5601 18.5316 13.4105 18.5316H4.53961C4.25185 18.5316 3.97589 18.4173 3.77241 18.2139C3.56894 18.0104 3.45462 17.7344 3.45462 17.4466C3.45462 17.1589 3.56894 16.8829 3.77241 16.6794C3.97589 16.476 4.25185 16.3617 4.53961 16.3617H35.1537C35.4415 16.3617 35.7174 16.476 35.9209 16.6794C36.1244 16.8829 36.2387 17.1589 36.2387 17.4466C36.2387 17.7344 36.1244 18.0104 35.9209 18.2139C35.7174 18.4173 35.4415 18.5316 35.1537 18.5316ZM32.4109 46.8716H7.23906L5.19061 19.66H7.05679C8.11423 19.6623 9.12759 20.084 9.87451 20.8326C10.6214 21.5811 11.0409 22.5954 11.0409 23.6528V28.5309C11.0409 29.2077 11.3097 29.8568 11.7883 30.3354C12.2669 30.814 12.916 31.0828 13.5928 31.0828C14.2696 31.0828 14.9187 30.814 15.3972 30.3354C15.8758 29.8568 16.1447 29.2077 16.1447 28.5309V24.3038C16.168 24.0518 16.2847 23.8176 16.4717 23.6471C16.6588 23.4766 16.9028 23.382 17.1559 23.382C17.409 23.382 17.653 23.4766 17.84 23.6471C18.0271 23.8176 18.1437 24.0518 18.1671 24.3038V25.4148C18.1671 26.0916 18.436 26.7407 18.9145 27.2193C19.3931 27.6979 20.0422 27.9667 20.719 27.9667C21.3958 27.9667 22.0449 27.6979 22.5235 27.2193C23.002 26.7407 23.2709 26.0916 23.2709 25.4148V22.8109C23.2578 22.6702 23.2743 22.5283 23.3192 22.3944C23.3641 22.2604 23.4364 22.1373 23.5316 22.0329C23.6268 21.9285 23.7427 21.8451 23.8719 21.788C24.0011 21.731 24.1408 21.7015 24.2821 21.7015C24.4234 21.7015 24.5631 21.731 24.6923 21.788C24.8216 21.8451 24.9375 21.9285 25.0326 22.0329C25.1278 22.1373 25.2002 22.2604 25.245 22.3944C25.2899 22.5283 25.3064 22.6702 25.2933 22.8109V35.0235C25.3313 35.6757 25.6172 36.2887 26.0924 36.737C26.5676 37.1853 27.1963 37.4351 27.8496 37.4351C28.5029 37.4351 29.1315 37.1853 29.6067 36.737C30.0819 36.2887 30.3678 35.6757 30.4058 35.0235V23.7396C30.4058 23.2017 30.5122 22.669 30.7188 22.1724C30.9255 21.6757 31.2283 21.2248 31.6099 20.8457C31.9915 20.4665 32.4443 20.1665 32.9422 19.9631C33.4402 19.7596 33.9735 19.6566 34.5114 19.66L32.4109 46.8716ZM36.2474 22.6286H35.3794L35.5009 21.0488H36.2474V22.6286ZM37.5581 21.2745H37.3758V20.528L36.8116 19.9638H35.6224V19.6514C36.1269 19.5085 36.5642 19.1913 36.8566 18.7562C37.149 18.3211 37.2775 17.7963 37.2191 17.2753C37.1608 16.7543 36.9194 16.271 36.538 15.9113C36.1566 15.5517 35.6599 15.3391 35.1364 15.3114H4.53961C4.0161 15.3391 3.51941 15.5517 3.138 15.9113C2.75659 16.271 2.51521 16.7543 2.45686 17.2753C2.39851 17.7963 2.52699 18.3211 2.81939 18.7562C3.11179 19.1913 3.54913 19.5085 4.05354 19.6514V19.9638H2.87305L2.30886 20.528V21.3179H2.12659C1.86105 21.3179 1.60624 21.213 1.41767 21.0261C1.22909 20.8391 1.12201 20.5852 1.11972 20.3197C1.11972 10.8846 8.32405 3.25497 14.5389 2.81229V3.8018L15.1031 4.366H24.5555L25.1197 3.8018V2.81229C31.3345 3.25497 38.5302 10.8846 38.5302 20.3197C38.5172 20.5732 38.4089 20.8124 38.227 20.9894C38.0451 21.1665 37.8031 21.2683 37.5494 21.2745H37.5581Z" fill="#002F7D"/>
</svg>
