<svg width="51" height="51" viewBox="0 0 51 51" fill="none" xmlns="http://www.w3.org/2000/svg">
<path d="M50.9996 18.6458C50.9995 18.4723 50.9071 18.3121 50.7567 18.2253L45.7195 15.3165C47.2481 13.1293 48.8986 10.7694 49.3426 10.1669C49.4002 10.0888 49.433 9.99528 49.437 9.89845C49.6388 4.95673 45.3924 3.42628 45.3495 3.41146C45.2871 3.38984 45.2206 3.38109 45.1547 3.38595L32.8135 4.29125C32.0691 4.34834 31.3561 4.55244 30.6945 4.89806L24.5735 8.09466C23.9637 8.41307 23.4257 8.83778 22.9744 9.35676C22.9744 9.35676 14.7721 18.7469 14.7206 18.7871L9.68105 15.8772C9.53065 15.7903 9.34539 15.7903 9.19511 15.8772L1.88361 20.0992C1.73333 20.1859 1.6687 20.3487 1.64064 20.52C1.477 21.5219 0 30.2485 0 30.3555V38.5746C0 38.7482 0.0925707 38.9087 0.242968 38.9954L15.0617 47.5505C15.1375 47.5943 15.2212 47.6155 15.3043 47.6155C15.3891 47.6155 15.4724 47.5916 15.547 47.5485L15.5477 47.5497L20.37 44.7659C20.4194 45.7319 20.8116 46.5345 21.5339 46.9514C21.8648 47.1425 22.2309 47.2332 22.6136 47.2332C23.8648 47.2332 25.2906 46.2623 26.222 44.6491C26.7816 43.6798 27.07 42.6233 27.0342 41.6741C27.0247 41.4259 26.9932 41.192 26.9416 40.9734L34.6721 36.5522C34.7449 37.5091 35.1504 38.2451 35.825 38.6346C36.1559 38.8256 36.522 38.9164 36.9048 38.9164C38.156 38.9164 39.5819 37.9454 40.5132 36.3324C41.0813 35.3483 41.3503 34.3246 41.3318 33.4298C41.4983 34.105 41.8631 34.6267 42.3944 34.9336C42.7254 35.1246 43.0915 35.2153 43.4743 35.2153C44.7255 35.2153 46.1513 34.2443 47.0826 32.6312C47.6422 31.6619 47.9306 30.6054 47.8947 29.6562C47.8856 29.4154 47.8553 29.1883 47.8064 28.9753L48.7033 28.4577C48.8536 28.3709 48.9463 28.2104 48.9463 28.0368V23.1849L50.7564 22.1432C50.9071 22.0564 51 21.8958 51 21.722V18.6458H50.9996ZM17.3886 29.3802L23.7441 25.7115V33.4819L16.0214 37.9406L17.3886 29.3802ZM24.716 27.5451L32.2436 26.2077C32.9273 26.0862 33.5738 25.8396 34.1649 25.4745L41.0208 21.2415C41.5772 20.898 42.0629 20.4624 42.4646 19.9472C42.5649 19.8185 43.0067 19.1928 43.6364 18.2951L46.8965 20.1666L24.716 32.9326V27.5451ZM47.8712 19.6055L44.1961 17.4957C44.4961 17.067 44.8212 16.6019 45.1606 16.1161L49.5405 18.6453L47.8712 19.6055ZM46.8061 5.4864C47.948 6.57891 48.5076 8.00039 48.4706 9.71331C47.8951 10.507 42.7732 17.8357 42.2006 18.6472C42.7118 15.8973 42.2555 13.033 40.8648 10.5317C39.4798 8.04085 37.2898 6.14716 34.6816 5.12851L45.117 4.36304C45.3612 4.46363 46.0876 4.79893 46.8061 5.4864ZM31.1444 5.7595C31.4348 5.60789 31.7375 5.49041 32.0491 5.40574L32.3641 5.46587C35.618 6.09224 38.4067 8.11082 40.0154 11.0042C41.599 13.8523 41.866 17.2111 40.7584 20.2485C40.6775 20.3061 40.5952 20.3621 40.5102 20.4146L34.0965 24.3746C35.1126 21.3168 34.8762 18.0013 33.3942 15.0773C31.7679 11.8687 28.8746 9.59098 25.4008 8.75906L31.1444 5.7595ZM24.2064 9.50473L24.6712 9.59426C28.09 10.2526 30.9533 12.4112 32.5273 15.5166C34.0523 18.5255 34.1447 21.9851 32.7933 25.0594C32.56 25.1422 24.7429 26.5579 24.7429 26.5579C24.7429 26.5579 24.7429 24.9084 24.7429 24.8545C24.7429 24.6809 24.6503 24.5204 24.4999 24.4336L22.9344 23.5298C22.7459 22.6863 22.3691 21.8404 21.8337 21.0718C21.7367 20.9305 21.6261 20.7824 21.4939 20.6173C20.9694 19.9684 20.3654 19.4246 19.6987 19.0012C18.6897 18.3607 17.6235 18.059 16.6564 18.103C16.6563 18.103 24.0286 9.65451 24.2064 9.50473ZM21.6878 22.81L15.6653 19.3325C16.6077 18.8507 17.9275 19.0282 19.1778 19.8217C19.7551 20.1884 20.28 20.6616 20.7366 21.2265C20.8523 21.371 20.949 21.5003 21.0343 21.6246C21.2988 22.0044 21.5176 22.4038 21.6878 22.81ZM9.43808 16.8591L23.2849 24.8543L16.9453 28.5139L3.09832 20.5199L9.43808 16.8591ZM2.5412 21.3205L16.4127 29.3287L15 38.1737L1.07137 30.1323L2.5412 21.3205ZM14.819 39.1915V43.2079L0.971871 35.2139V31.1971L14.819 39.1915ZM12.5986 43.0484V45.0064L3.34238 39.6626V37.7046L12.5986 43.0484ZM0.971871 36.3361L2.37039 37.1435V39.1013L0.971871 38.294V36.3361ZM13.5705 45.5674V43.6094L14.819 44.3301V46.2882L13.5705 45.5674ZM20.4675 43.5876L15.7908 46.2872V39.1959L23.7737 34.604V39.3599C23.6346 39.4131 23.4946 39.4755 23.354 39.5496C22.514 39.993 21.7432 40.771 21.1836 41.7403C20.8291 42.3544 20.5919 42.9837 20.4675 43.5876ZM25.3804 44.1635C24.4681 45.7435 22.9293 46.635 22.0198 46.11C21.1105 45.5849 21.1129 43.8065 22.0251 42.2264C22.4944 41.4137 23.1275 40.7682 23.8077 40.4092C24.1589 40.2239 24.4944 40.1304 24.7944 40.1304C25.0129 40.1304 25.2126 40.1801 25.3857 40.28C25.7964 40.517 26.0368 41.0253 26.0629 41.7113C26.0921 42.4798 25.8497 43.3507 25.3804 44.1635ZM39.6715 35.8467C38.7592 37.4269 37.22 38.3181 36.3109 37.7932C35.9003 37.5561 35.66 37.0478 35.6339 36.3619C35.6048 35.5933 35.8472 34.7223 36.3164 33.9095C37.2288 32.3294 38.7682 31.4384 39.677 31.963C40.5863 32.488 40.5837 34.2665 39.6715 35.8467ZM46.241 32.1455C45.3287 33.7258 43.7894 34.6173 42.8804 34.0921C42.4698 33.8551 42.2294 33.3468 42.2034 32.6608C42.1742 31.8923 42.4167 31.0213 42.8859 30.2085C43.3551 29.3958 43.9882 28.7503 44.6684 28.3912C45.0196 28.2058 45.355 28.1124 45.6551 28.1124C45.8736 28.1124 46.0732 28.1621 46.2463 28.262C46.657 28.499 46.8974 29.0073 46.9235 29.6933C46.9526 30.4619 46.7103 31.3328 46.241 32.1455ZM47.9744 27.7563L47.4261 28.0728C47.2435 27.8023 47.0112 27.5813 46.7324 27.4203C46.022 27.0101 45.1278 27.0498 44.2148 27.5317C43.3747 27.9751 42.6039 28.7532 42.0443 29.7226C41.6947 30.3281 41.4509 30.9679 41.326 31.5941L40.9007 31.8396C40.7142 31.5427 40.4681 31.2976 40.163 31.1214C38.7503 30.3059 36.691 31.3171 35.4749 33.4237C35.1066 34.0616 34.8566 34.7372 34.7384 35.3951L26.5553 40.0752C26.3743 39.8117 26.1454 39.5963 25.8718 39.4383C25.5325 39.2424 25.1509 39.1503 24.7455 39.1588V37.1129L47.9744 23.7443V27.7563ZM24.7455 35.9916V34.0541L48.1137 20.5871L50.0281 19.486V21.441L24.7455 35.9916Z" fill="#002F7D"/>
</svg>
