<svg width="57" height="50" viewBox="0 0 57 50" fill="none" xmlns="http://www.w3.org/2000/svg">
<path d="M55.0598 22.5309H56.3577L53.3157 8.73048H43.5713V10.0487H52.2612L54.7455 21.2026H44.1999V18.0288H47.0492L41.8069 13.0298V4.46157H36.1691V7.59481L28.2093 0L19.0834 8.73048H3.04198L0 22.5309H1.30803V48.2864H12.1679V50H44.2405V48.2864H55.1004L55.0598 22.5309ZM53.7416 22.5309V43.8248H44.1999V22.5309H53.7416ZM37.4366 5.77976H40.4786V11.7522L37.4366 8.85216V5.77976ZM43.7538 16.6903H12.5633L28.1585 1.80491L43.7538 16.6903ZM4.09651 10.0487H17.6232L9.278 18.0288H12.1273V21.233H1.60206L4.09651 10.0487ZM12.1273 22.5309V43.8248H2.58567V22.5309H12.1273ZM2.58567 46.9682V45.1024H12.1273V46.9682H2.58567ZM31.2817 48.6818H25.0152V39.424H31.2513L31.2817 48.6818ZM32.5998 48.6818V38.1059H23.7274V48.6818H13.4456V18.0288H42.8514V48.6818H32.5998ZM44.1999 46.9682V45.1024H53.7416V46.9682H44.1999Z" fill="#002F7D"/>
<path d="M17.177 26.2829H22.247V21.2129H17.177V26.2829ZM18.4952 22.5311H20.9592V24.9647H18.5256L18.4952 22.5311Z" fill="#002F7D"/>
<path d="M25.6237 26.2829H30.6936V21.2129H25.6237V26.2829ZM26.9419 22.5311H29.3856V24.9647H26.9419V22.5311Z" fill="#002F7D"/>
<path d="M39.1504 21.2129H34.0804V26.2829H39.1504V21.2129ZM37.8322 24.9647H35.3885V22.5311H37.8322V24.9647Z" fill="#002F7D"/>
<path d="M17.177 34.9628H22.247V29.8928H17.177V34.9628ZM18.4952 31.2009H20.9592V33.6446H18.5256L18.4952 31.2009Z" fill="#002F7D"/>
<path d="M25.6237 34.9628H30.6936V29.8928H25.6237V34.9628ZM26.9419 31.211H29.3856V33.6446H26.9419V31.211Z" fill="#002F7D"/>
<path d="M39.1504 29.8826H34.0804V34.9525H39.1504V29.8826ZM37.8322 33.6445H35.3885V31.2109H37.8322V33.6445Z" fill="#002F7D"/>
<path d="M35.064 45.6906H40.1339V40.6206H35.064V45.6906ZM36.3822 41.9388H38.8259V44.3927H36.3822V41.9388Z" fill="#002F7D"/>
<path d="M16.1833 45.6906H21.2533V40.6206H16.1833V45.6906ZM17.5015 41.9388H19.9452V44.3927H17.5116L17.5015 41.9388Z" fill="#002F7D"/>
<path d="M51.5109 25.0662H46.4409V30.1361H51.5109V25.0662ZM50.1927 28.8179H47.7489V26.3843H50.1927V28.8179Z" fill="#002F7D"/>
<path d="M51.5109 38.8664V33.7964H46.4409V38.8664H51.5109ZM47.7489 35.1044H50.1927V37.5482H47.7489V35.1044Z" fill="#002F7D"/>
<path d="M9.88637 25.0662H4.81641V30.1361H9.88637V25.0662ZM8.56819 28.8179H6.13458V26.3843H8.56819V28.8179Z" fill="#002F7D"/>
<path d="M9.88637 38.8664V33.7964H4.81641V38.8664H9.88637ZM6.13458 35.1044H8.56819V37.5482H6.13458V35.1044Z" fill="#002F7D"/>
</svg>
