<svg width="45" height="55" viewBox="0 0 45 55" fill="none" xmlns="http://www.w3.org/2000/svg">
<path d="M26.6983 40.1284C26.3769 39.9237 25.9504 40.0183 25.7458 40.3396C25.702 40.4082 25.6709 40.484 25.6535 40.5636L24.2712 46.9168C23.6457 49.8079 25.4784 52.6598 28.368 53.292C28.4894 53.3182 28.6108 53.3404 28.7324 53.3584C31.5185 53.7652 34.1442 51.9464 34.743 49.1952L35.3941 46.2016C35.4555 45.9192 35.3344 45.6283 35.0906 45.473L26.6983 40.1284ZM33.3947 48.9019C32.9276 51.049 30.8084 52.4108 28.6613 51.9437C26.5142 51.4766 25.1523 49.3574 25.6194 47.2103L26.7915 41.8235L33.9439 46.3778L33.3947 48.9019Z" fill="#002F7D"/>
<path d="M25.9934 22.6036L26.8533 36.3133C26.8669 36.5286 26.9803 36.7253 27.16 36.8447L35.6725 42.5007C35.9898 42.7115 36.418 42.6253 36.6289 42.308C36.6502 42.2759 36.6688 42.242 36.6845 42.2068L41.0385 32.4286C41.0437 32.4165 41.0489 32.4041 41.0536 32.3917C42.8849 27.5403 43.6413 23.2862 43.3018 19.7475C43.0129 16.736 41.9149 14.2853 40.1266 12.6605C37.9309 10.6655 34.8438 10.114 32.4358 11.2832C32.1936 11.3828 30.6944 12.0408 29.2012 13.6487C27.7431 15.2188 26.0028 18.0392 25.9921 22.5587C25.9926 22.5737 25.9931 22.5888 25.9934 22.6036ZM30.166 14.6378C31.5482 13.1281 32.9539 12.5622 32.9659 12.5572C32.9845 12.55 33.0031 12.5419 33.0209 12.533C34.6086 11.7531 37.1346 11.8059 39.1987 13.6816C42.7181 16.8795 42.9261 23.5137 39.7699 31.8854L35.7561 40.8995L28.209 35.8848L27.372 22.5395C27.3844 19.3082 28.3243 16.6498 30.1665 14.6379L30.166 14.6378Z" fill="#002F7D"/>
<path d="M14.6103 30.4921C14.4172 30.3756 14.1793 30.3607 13.9733 30.4524L4.8825 34.4973C4.61839 34.6148 4.45558 34.8844 4.47455 35.1729L4.67599 38.23C4.8618 41.0433 7.19576 43.2315 10.0152 43.2357C10.1346 43.2357 10.2545 43.2319 10.3752 43.2242C13.3279 43.0298 15.564 40.4786 15.3696 37.5259C15.3696 37.5256 15.3696 37.5254 15.3696 37.5252L14.9421 31.0374C14.9273 30.8124 14.8033 30.6087 14.6103 30.4921ZM13.0151 40.4992C11.5677 42.1523 9.05428 42.3189 7.40122 40.8715C6.60672 40.1758 6.12139 39.1927 6.05229 38.1389L5.88247 35.5619L13.63 32.1151L13.9924 37.6158C14.0647 38.6689 13.7128 39.7071 13.0151 40.4992Z" fill="#002F7D"/>
<path d="M0.928931 20.7166L3.7888 31.031C3.89056 31.3981 4.27079 31.6132 4.63792 31.5115C4.67506 31.5011 4.71128 31.4878 4.74612 31.4715L14.0019 27.1368C14.1973 27.0452 14.3387 26.8676 14.3839 26.6566L17.2619 13.2248C17.265 13.2101 17.2677 13.1953 17.2698 13.1806C17.9278 8.70909 16.6237 5.66238 15.4139 3.89389C14.1748 2.08274 12.7893 1.21028 12.5646 1.0761C10.3563 -0.436791 7.2215 -0.347682 4.75474 1.30065C2.74583 2.64315 1.29755 4.90455 0.566288 7.84019C-0.292834 11.2896 -0.173946 15.609 0.919733 20.6778C0.922032 20.6907 0.925252 20.7037 0.928931 20.7166ZM5.52096 2.44768C7.83997 0.897884 10.3459 1.21936 11.8006 2.22543C11.8159 2.23601 11.8335 2.24705 11.8496 2.25636C11.8626 2.26395 13.1692 3.03189 14.313 4.72944C15.8374 6.99153 16.3738 9.75976 15.9076 12.9577L13.106 26.0324L4.90019 29.8752L2.26384 20.3665C0.380482 11.6206 1.56718 5.0899 5.52096 2.44768Z" fill="#002F7D"/>
</svg>
