<svg width="55" height="48" viewBox="0 0 55 48" fill="none" xmlns="http://www.w3.org/2000/svg">
<path d="M17.3878 37.3296C16.8537 37.3296 16.3317 37.488 15.8877 37.7846C15.4437 38.0813 15.0976 38.503 14.8933 38.9964C14.6889 39.4897 14.6354 40.0326 14.7396 40.5563C14.8438 41.0801 15.1009 41.5612 15.4785 41.9388C15.8561 42.3164 16.3372 42.5736 16.861 42.6777C17.3847 42.7819 17.9276 42.7284 18.421 42.5241C18.9143 42.3197 19.336 41.9736 19.6327 41.5296C19.9294 41.0856 20.0877 40.5636 20.0877 40.0296C20.0877 39.3135 19.8033 38.6268 19.2969 38.1204C18.7906 37.6141 18.1038 37.3296 17.3878 37.3296ZM17.3878 41.4296C17.1109 41.4296 16.8402 41.3475 16.61 41.1937C16.3797 41.0398 16.2003 40.8212 16.0943 40.5654C15.9884 40.3096 15.9606 40.028 16.0146 39.7565C16.0687 39.4849 16.202 39.2354 16.3978 39.0396C16.5936 38.8438 16.843 38.7105 17.1146 38.6565C17.3862 38.6025 17.6677 38.6302 17.9235 38.7362C18.1793 38.8421 18.398 39.0216 18.5518 39.2518C18.7057 39.482 18.7877 39.7527 18.7877 40.0296C18.7877 40.4009 18.6402 40.757 18.3777 41.0196C18.1151 41.2821 17.7591 41.4296 17.3878 41.4296Z" fill="#002F7D"/>
<path d="M47.7579 6.29966L40.4278 28.6897L38.7979 29.4397L40.9278 20.0797C41.4693 19.9555 41.9528 19.6516 42.2996 19.2177C42.6464 18.7837 42.8361 18.2452 42.8378 17.6897C42.8388 17.1008 42.6267 16.5314 42.2407 16.0867C41.8548 15.6419 41.321 15.3517 40.7379 15.2696L33.4078 5.69965C33.1325 5.32917 32.7754 5.0272 32.3643 4.81728C31.9532 4.60736 31.4993 4.49513 31.0377 4.48932C30.5761 4.48352 30.1195 4.5843 29.7032 4.78382C29.287 4.98334 28.9224 5.27621 28.6379 5.63965L26.6379 8.06964L20.5578 1.06965C20.2713 0.728809 19.9126 0.456016 19.5075 0.271061C19.1025 0.0861068 18.6614 -0.00636202 18.2162 0.000339948C17.771 0.00704191 17.3329 0.112757 16.9336 0.309819C16.5344 0.506881 16.184 0.790347 15.9078 1.13965L4.45787 15.2396H2.45787C1.84059 15.2377 1.2453 15.4688 0.791057 15.8868C0.336817 16.3047 0.0570987 16.8788 0.00782341 17.4941C-0.0414519 18.1094 0.143346 18.7206 0.525279 19.2055C0.907213 19.6905 1.45813 20.0134 2.06785 20.1097L10.3879 33.3896L11.4879 32.6996L3.62785 20.1496H29.9378C30.1102 20.1496 30.2756 20.0812 30.3975 19.9593C30.5194 19.8374 30.5878 19.672 30.5878 19.4997C30.5878 19.3273 30.5194 19.1619 30.3975 19.04C30.2756 18.9181 30.1102 18.8496 29.9378 18.8496H2.47786C2.31715 18.8646 2.15508 18.8459 2.00203 18.7947C1.84897 18.7434 1.70828 18.6608 1.58897 18.5521C1.46966 18.4434 1.37437 18.311 1.30915 18.1633C1.24394 18.0157 1.21028 17.856 1.21028 17.6946C1.21028 17.5332 1.24394 17.3736 1.30915 17.226C1.37437 17.0783 1.46966 16.9459 1.58897 16.8372C1.70828 16.7285 1.84897 16.6459 2.00203 16.5947C2.15508 16.5434 2.31715 16.5247 2.47786 16.5396H10.5679C10.7402 16.5396 10.9056 16.4712 11.0275 16.3493C11.1494 16.2274 11.2178 16.062 11.2178 15.8897C11.2178 15.7173 11.1494 15.5519 11.0275 15.43C10.9056 15.3081 10.7402 15.2396 10.5679 15.2396H6.14784L16.9378 1.95964C17.1012 1.76602 17.3048 1.61039 17.5346 1.50364C17.7643 1.39688 18.0145 1.34157 18.2679 1.34157C18.5212 1.34157 18.7714 1.39688 19.0011 1.50364C19.2309 1.61039 19.4345 1.76602 19.5979 1.95964L25.8179 9.14965L23.0878 12.5196C22.98 12.6526 22.9289 12.8228 22.9458 12.9932C22.9626 13.1635 23.046 13.3204 23.1778 13.4296C23.3124 13.5381 23.4842 13.5894 23.6562 13.5726C23.8283 13.5558 23.9868 13.4721 24.0979 13.3396L29.6379 6.50965C29.7964 6.29895 30.0042 6.1304 30.2431 6.0188C30.4819 5.90721 30.7446 5.85599 31.0079 5.86965C31.2718 5.86965 31.5321 5.9311 31.7681 6.04912C32.0042 6.16715 32.2095 6.33852 32.3678 6.54966L39.0578 15.2797H13.8678C13.6954 15.2797 13.5301 15.3481 13.4082 15.47C13.2863 15.5919 13.2178 15.7573 13.2178 15.9296C13.2178 16.102 13.2863 16.2674 13.4082 16.3893C13.5301 16.5112 13.6954 16.5797 13.8678 16.5797H40.3879C40.6756 16.6065 40.943 16.7397 41.1377 16.9534C41.3324 17.167 41.4403 17.4456 41.4403 17.7347C41.4403 18.0237 41.3324 18.3023 41.1377 18.5159C40.943 18.7296 40.6756 18.8628 40.3879 18.8897H35.0278C34.8555 18.8897 34.6901 18.9581 34.5682 19.08C34.4463 19.2019 34.3778 19.3673 34.3778 19.5396C34.3778 19.712 34.4463 19.8774 34.5682 19.9993C34.6901 20.1212 34.8555 20.1897 35.0278 20.1897H39.5679L37.2979 30.1897L24.0179 36.3097C23.0333 34.5605 21.4109 33.2596 19.4896 32.6787C17.5683 32.0979 15.4969 32.282 13.7082 33.1927C11.9195 34.1034 10.552 35.6701 9.89146 37.5654C9.23091 39.4608 9.32845 41.5381 10.1637 43.3633C10.9989 45.1884 12.5072 46.6201 14.3733 47.3592C16.2395 48.0983 18.319 48.0875 20.1774 47.3292C22.0358 46.5709 23.5293 45.1236 24.3456 43.29C25.1619 41.4563 25.2379 39.3781 24.5578 37.4896L27.7178 36.0397L32.7178 45.6996C32.8313 45.9171 33.0023 46.0992 33.2121 46.2261C33.4219 46.3531 33.6626 46.42 33.9078 46.4196H34.0779C34.3481 46.3918 34.603 46.2805 34.8073 46.1014C35.0115 45.9222 35.155 45.684 35.2178 45.4196L38.4678 31.1396L41.5179 29.7296L48.7279 7.72965H54.7279V6.42965L47.7579 6.29966ZM17.3879 46.3696C16.1339 46.3696 14.9082 45.9978 13.8656 45.3012C12.8229 44.6045 12.0103 43.6143 11.5305 42.4559C11.0506 41.2974 10.925 40.0226 11.1697 38.7928C11.4143 37.5629 12.0181 36.4333 12.9048 35.5466C13.7915 34.6599 14.9211 34.0561 16.151 33.8115C17.3808 33.5669 18.6556 33.6924 19.8141 34.1723C20.9726 34.6521 21.9627 35.4647 22.6594 36.5073C23.356 37.5499 23.7279 38.7757 23.7279 40.0297C23.7279 41.7111 23.0599 43.3237 21.8709 44.5127C20.6819 45.7017 19.0693 46.3696 17.3879 46.3696ZM33.8479 45.0397L28.9078 35.4296L36.9078 31.7297L33.8479 45.0397Z" fill="#002F7D"/>
</svg>
