<svg width="56" height="38" viewBox="0 0 56 38" fill="none" xmlns="http://www.w3.org/2000/svg">
<path d="M54.0242 28.55C53.606 28.206 53.1181 27.957 52.5942 27.82C52.5942 27.38 52.6442 26.92 52.6442 26.44C52.6349 20.7618 50.6929 15.256 47.1378 10.8285C43.5827 6.40095 38.6263 3.31555 33.0842 2.07999C32.8942 1.50999 32.6943 0.959983 32.4843 0.419983L32.3242 0H23.0642L22.9042 0.419983C22.7042 0.959983 22.5042 1.50999 22.3042 2.07999C16.764 3.31752 11.8098 6.40375 8.25671 10.8311C4.70358 15.2584 2.76304 20.7632 2.75424 26.44C2.75424 26.92 2.75424 27.38 2.75424 27.82C2.23035 27.957 1.74245 28.206 1.32425 28.55C0.791732 28.9926 0.395284 29.5768 0.180694 30.2351C-0.0338959 30.8934 -0.0578712 31.599 0.111541 32.2704C0.280954 32.9418 0.636841 33.5515 1.13809 34.0292C1.63934 34.5069 2.2655 34.833 2.94424 34.97C19.2848 37.89 36.0137 37.89 52.3542 34.97C53.033 34.833 53.6591 34.5069 54.1604 34.0292C54.6617 33.5515 55.0175 32.9418 55.187 32.2704C55.3564 31.599 55.3324 30.8934 55.1178 30.2351C54.9032 29.5768 54.5068 28.9926 53.9742 28.55H54.0242ZM52.1442 33.69C35.9726 36.5833 19.4158 36.5833 3.24423 33.69C2.80838 33.5977 2.40757 33.3839 2.0881 33.0734C1.76864 32.7629 1.54357 32.3683 1.43896 31.9352C1.33436 31.5022 1.35448 31.0484 1.49698 30.6263C1.63948 30.2042 1.89855 29.831 2.24423 29.55C2.50854 29.3284 2.81894 29.1686 3.1528 29.0821C3.48666 28.9956 3.83559 28.9846 4.17422 29.05C6.29422 29.44 8.59425 29.79 11.0143 30.05C11.1812 30.0618 11.3462 30.0089 11.4751 29.9021C11.6039 29.7953 11.6866 29.6429 11.7059 29.4767C11.7253 29.3105 11.6797 29.1432 11.5788 29.0097C11.4779 28.8762 11.3294 28.7868 11.1642 28.76C8.77425 28.48 6.50424 28.14 4.41425 27.76C4.32431 27.755 4.23416 27.755 4.14423 27.76C4.14423 27.34 4.09424 26.91 4.09424 26.45C4.10751 22.1385 5.29368 17.9119 7.52563 14.2231C9.75759 10.5343 12.9512 7.52235 16.7643 5.50998L14.1442 16.26C13.9174 17.1942 13.4385 18.0482 12.7596 18.7289C12.0806 19.4096 11.2279 19.8908 10.2943 20.12L7.01425 20.92C6.86596 20.9656 6.73846 21.0619 6.65414 21.1921C6.56983 21.3224 6.53407 21.4781 6.55316 21.6321C6.57226 21.786 6.64497 21.9284 6.75854 22.0341C6.87212 22.1397 7.01929 22.202 7.17422 22.21H7.32425L10.6042 21.4C11.7695 21.1141 12.8336 20.5133 13.6802 19.6631C14.5268 18.813 15.1232 17.7464 15.4042 16.58L18.2842 4.81C19.4413 4.29862 20.6387 3.88385 21.8642 3.56998C19.8044 10.604 18.211 17.7662 17.0942 25.01C17.0724 25.0979 17.0692 25.1894 17.0848 25.2787C17.1005 25.3679 17.1346 25.453 17.185 25.5283C17.2354 25.6035 17.301 25.6674 17.3776 25.7159C17.4542 25.7643 17.54 25.7962 17.6297 25.8095C17.7193 25.8228 17.8107 25.8173 17.898 25.7932C17.9854 25.769 18.0667 25.727 18.1368 25.6696C18.207 25.6122 18.2643 25.5407 18.3052 25.4598C18.3461 25.379 18.3696 25.2905 18.3742 25.2C18.3742 25.05 20.6042 10.49 24.0042 1.32999H31.4742C34.8642 10.49 37.0742 25.05 37.1042 25.2C37.1261 25.3537 37.203 25.4942 37.3207 25.5954C37.4385 25.6966 37.589 25.7515 37.7442 25.75H37.8342C38.0043 25.7228 38.1571 25.6302 38.2599 25.4919C38.3627 25.3537 38.4073 25.1807 38.3842 25.01C37.2565 17.76 35.6564 10.5914 33.5942 3.54999C34.8197 3.86386 36.0171 4.2786 37.1742 4.78998L40.0242 16.55C40.3071 17.7172 40.9053 18.7841 41.7537 19.6342C42.602 20.4842 43.6677 21.0847 44.8342 21.37L48.1042 22.18H48.2643C48.4101 22.1794 48.5516 22.1298 48.6659 22.0391C48.7801 21.9484 48.8606 21.8219 48.8942 21.68C48.9336 21.5117 48.9054 21.3347 48.8156 21.187C48.7259 21.0392 48.5818 20.9326 48.4142 20.89L45.1442 20.09C44.2096 19.8628 43.3558 19.3823 42.6765 18.7013C41.9973 18.0203 41.519 17.1652 41.2943 16.23L38.6642 5.47998C42.4787 7.49063 45.6735 10.5022 47.9057 14.1914C50.1379 17.8806 51.3231 22.1081 51.3342 26.42C51.3342 26.88 51.3342 27.31 51.3342 27.73C51.2443 27.725 51.1542 27.725 51.0642 27.73C50.3142 27.87 49.4642 28.02 48.4942 28.17C48.3248 28.1971 48.1729 28.2901 48.0717 28.4287C47.9706 28.5673 47.9283 28.7403 47.9542 28.91C47.965 28.9951 47.9931 29.077 48.0367 29.1509C48.0803 29.2247 48.1386 29.2889 48.2079 29.3395C48.2771 29.39 48.356 29.4259 48.4396 29.4449C48.5233 29.4639 48.6099 29.4657 48.6942 29.45C49.6942 29.3 50.5442 29.15 51.3042 29.01C51.6429 28.9454 51.9917 28.9567 52.3254 29.0432C52.6592 29.1296 52.9696 29.2891 53.2343 29.51C53.5764 29.7964 53.8307 30.1736 53.968 30.5981C54.1053 31.0227 54.1199 31.4775 54.0103 31.91C53.9006 32.3425 53.671 32.7353 53.3479 33.0431C53.0249 33.3509 52.6215 33.5612 52.1842 33.65L52.1442 33.69Z" fill="#121D46"/>
<path d="M40.0844 29.1798C31.6041 29.8716 23.0807 29.8482 14.6044 29.1098C14.4324 29.0959 14.2618 29.1498 14.1291 29.26C13.9964 29.3703 13.9121 29.5282 13.8944 29.6999C13.8861 29.7853 13.8949 29.8715 13.9201 29.9535C13.9454 30.0356 13.9866 30.1118 14.0415 30.1778C14.0963 30.2438 14.1637 30.2983 14.2397 30.3381C14.3157 30.3779 14.3989 30.4023 14.4844 30.4098C18.7344 30.7898 23.1844 30.9898 27.6944 30.9898C31.9644 30.9898 36.1644 30.8098 40.1944 30.4698C40.2847 30.4703 40.3741 30.452 40.4569 30.416C40.5398 30.38 40.6142 30.3271 40.6755 30.2608C40.7367 30.1944 40.7835 30.116 40.8128 30.0306C40.8421 29.9452 40.8532 29.8546 40.8455 29.7646C40.8379 29.6746 40.8115 29.5873 40.7682 29.508C40.7249 29.4288 40.6655 29.3594 40.5939 29.3044C40.5223 29.2494 40.44 29.2099 40.3523 29.1885C40.2645 29.167 40.1733 29.1641 40.0844 29.1798Z" fill="#121D46"/>
<path d="M45.6643 28.5499L44.2043 28.7299C44.1191 28.7385 44.0365 28.7642 43.9614 28.8053C43.8863 28.8464 43.8203 28.9022 43.7671 28.9694C43.7139 29.0365 43.6748 29.1136 43.652 29.1962C43.6292 29.2787 43.6232 29.365 43.6343 29.4499C43.6535 29.6073 43.7288 29.7526 43.8463 29.8591C43.9638 29.9656 44.1158 30.0262 44.2743 30.0298H44.3543L45.8243 29.8499C45.9091 29.8388 45.9908 29.8111 46.0648 29.7684C46.1388 29.7257 46.2037 29.6688 46.2557 29.601C46.3077 29.5332 46.3459 29.4558 46.3679 29.3732C46.39 29.2907 46.3956 29.2046 46.3843 29.1199C46.3757 29.0347 46.35 28.9521 46.3089 28.877C46.2678 28.8019 46.212 28.7358 46.1448 28.6826C46.0777 28.6295 46.0006 28.5904 45.9181 28.5676C45.8355 28.5448 45.7492 28.5387 45.6643 28.5499Z" fill="#121D46"/>
</svg>
