<svg width="51" height="51" viewBox="0 0 51 51" fill="none" xmlns="http://www.w3.org/2000/svg">
<path d="M46.6025 4.0522C43.9893 1.43915 40.515 0 36.8196 0C33.1242 0 29.65 1.43915 27.0368 4.0522C24.7093 6.37987 23.2855 9.46666 23.0281 12.744C22.7915 15.7528 23.545 18.7569 25.156 21.2789L1.21813 45.2163C0.0546917 46.3798 0.0546917 48.2729 1.21813 49.4364C1.78172 49.9999 2.53118 50.3105 3.32825 50.3105C4.12532 50.3105 4.87458 50 5.43837 49.4364L8.00988 46.8648L11.2708 50.1259C11.8344 50.6894 12.5838 51 13.3809 51C14.178 51 14.9272 50.6895 15.4909 50.1258C16.6544 48.9623 16.6543 47.0692 15.4909 45.9058L13.7644 44.1794L15.6827 42.2611L17.4091 43.9874C17.9727 44.5511 18.7221 44.8616 19.5192 44.8616C20.3163 44.8616 21.0656 44.5512 21.629 43.9875C22.1926 43.424 22.5032 42.6746 22.5032 41.8775C22.5032 41.0804 22.1927 40.331 21.6291 39.7674L18.3679 36.5065L29.3754 25.4992C31.5958 26.9211 34.1551 27.6693 36.8204 27.6695C40.5157 27.6694 43.9894 26.2306 46.6022 23.6178C49.2152 21.0047 50.6544 17.5304 50.6544 13.835C50.6547 10.1396 49.2155 6.66535 46.6025 4.0522ZM45.4514 22.467C43.1459 24.7725 40.0814 26.0419 36.8216 26.0419C34.2636 26.0417 31.8176 25.2619 29.7471 23.7863C29.4234 23.5557 28.9806 23.5924 28.6993 23.8735L16.6417 35.931C16.4891 36.0837 16.4034 36.2906 16.4034 36.5066C16.4034 36.7225 16.4892 36.9293 16.6417 37.0821L20.4781 40.9185C20.7343 41.1746 20.8754 41.5152 20.8754 41.8776C20.8754 42.2399 20.7343 42.5805 20.4781 42.8367C20.222 43.0929 19.8812 43.234 19.519 43.234C19.1567 43.234 18.816 43.0929 18.5598 42.8366L16.2578 40.5348C15.9401 40.217 15.4248 40.217 15.1069 40.5348L12.0379 43.6038C11.72 43.9218 11.72 44.437 12.0379 44.7548L14.3398 47.0568C14.8688 47.5855 14.8688 48.4461 14.3398 48.9749C14.0837 49.2311 13.743 49.3723 13.3808 49.3723C13.0185 49.3723 12.6778 49.2311 12.4217 48.9749L8.58532 45.1385C8.42635 44.9796 8.21816 44.9002 8.00978 44.9002C7.8016 44.9002 7.59321 44.9796 7.43424 45.1385L4.28738 48.2856C4.03119 48.5417 3.69043 48.6829 3.32815 48.6829C2.96587 48.6829 2.62511 48.5417 2.36901 48.2856C1.84009 47.7568 1.84009 46.8962 2.36901 46.3674L26.7811 21.9554C27.0621 21.6742 27.0991 21.2313 26.8684 20.9076C23.4 16.0406 23.9548 9.43588 28.1876 5.20299C30.4934 2.89733 33.5588 1.62761 36.8196 1.62761C40.0803 1.62761 43.1459 2.89743 45.4515 5.20319C47.7572 7.50884 49.0271 10.5743 49.0271 13.835C49.0271 17.0958 47.7571 20.1613 45.4514 22.467Z" fill="#002F7D"/>
<circle cx="37" cy="14" r="7.25" stroke="#002F7D" stroke-width="1.5"/>
</svg>
