<svg width="56" height="52" viewBox="0 0 56 52" fill="none" xmlns="http://www.w3.org/2000/svg">
<path d="M22.0249 37.2399H27.7248C28.5035 37.2341 29.2494 36.9257 29.8049 36.3799L47.8049 18.3799L32.8649 3.42993L14.8649 21.4299C14.5897 21.7015 14.3718 22.0255 14.224 22.3828C14.0763 22.74 14.0018 23.1233 14.0048 23.5099V29.21C14.0038 29.6703 13.9032 30.1249 13.7099 30.5426C13.5165 30.9603 13.2351 31.3313 12.8848 31.6299L2.10484 40.7599C1.47765 41.2911 0.967288 41.9464 0.605941 42.6846C0.244594 43.4227 0.0400864 44.2278 0.00532439 45.0489C-0.0294376 45.87 0.106309 46.6894 0.403976 47.4555C0.701642 48.2216 1.15479 48.9177 1.73485 49.4999C2.85487 50.6108 4.36733 51.2359 5.94484 51.2399H6.18486C7.00569 51.2077 7.81087 51.0053 8.54936 50.6455C9.28785 50.2857 9.94352 49.7765 10.4748 49.15L19.6149 38.3699C19.9097 38.0171 20.2783 37.7331 20.6946 37.5379C21.111 37.3427 21.565 37.241 22.0249 37.2399ZM45.9649 18.3799L39.5448 24.8499C38.9737 24.0595 38.7015 23.0921 38.7765 22.1198C38.8516 21.1474 39.2691 20.2333 39.9548 19.5399L40.3548 19.1499C40.8109 18.6791 41.0639 18.0479 41.0591 17.3924C41.0544 16.7369 40.7923 16.1094 40.3295 15.6452C39.8666 15.181 39.2399 14.9172 38.5844 14.9106C37.9289 14.904 37.297 15.1552 36.8248 15.6099L36.4148 16.0099C36.0937 16.3227 35.6631 16.4977 35.2149 16.4977C34.7666 16.4977 34.336 16.3227 34.0148 16.0099C33.856 15.8532 33.7299 15.6663 33.6441 15.4603C33.5582 15.2542 33.5143 15.0331 33.5148 14.8099C33.5159 14.3595 33.6958 13.9279 34.0148 13.6099L35.2449 12.3799C35.6901 11.9312 36.0393 11.3967 36.2714 10.8087C36.5035 10.2208 36.6135 9.59175 36.5948 8.95993L45.9649 18.3799ZM32.8649 5.26993L34.2749 6.67993C34.9039 7.31637 35.2566 8.17513 35.2566 9.06995C35.2566 9.96476 34.9039 10.8235 34.2749 11.4599L33.0448 12.6899C32.483 13.2524 32.1675 14.0149 32.1675 14.8099C32.1675 15.6049 32.483 16.3674 33.0448 16.9299C33.6148 17.4775 34.3745 17.7833 35.1648 17.7833C35.9552 17.7833 36.7149 17.4775 37.2848 16.9299L37.6948 16.5299C37.9232 16.314 38.2256 16.1937 38.5398 16.1937C38.8541 16.1937 39.1565 16.314 39.3848 16.5299C39.6084 16.7564 39.7337 17.0618 39.7337 17.3799C39.7337 17.6981 39.6084 18.0035 39.3848 18.2299L38.9848 18.6299C38.0575 19.5653 37.504 20.8073 37.4285 22.1223C37.3529 23.4373 37.7606 24.7346 38.5748 25.77L36.6348 27.71L23.5448 14.6199L32.8649 5.26993ZM22.6048 15.5199L35.7149 28.6199L33.1749 31.1599L20.0648 18.0599L22.6048 15.5199ZM19.1449 18.9799L32.2548 32.0899L31.7248 32.6199L18.6248 19.5099L19.1449 18.9799ZM9.48485 48.2999C8.85987 49.0398 8.01906 49.5655 7.08028 49.8035C6.14149 50.0414 5.15178 49.9796 4.24986 49.6268C3.34795 49.2739 2.57905 48.6477 2.05092 47.8359C1.52279 47.0241 1.26191 46.0674 1.30485 45.0999C1.32665 44.4575 1.48401 43.8269 1.76665 43.2496C2.04928 42.6722 2.4508 42.1612 2.94484 41.7499L13.7248 32.6199C14.22 32.2003 14.6178 31.6779 14.8906 31.0891C15.1635 30.5002 15.3048 29.859 15.3049 29.21V23.5099C15.3042 23.2945 15.3463 23.081 15.4287 22.8819C15.5111 22.6828 15.6321 22.5019 15.7848 22.3499L17.7048 20.4299L30.8049 33.5399L28.8848 35.46C28.5765 35.7666 28.1596 35.939 27.7248 35.9399H22.0249C21.3756 35.9386 20.7339 36.0793 20.1449 36.3523C19.5558 36.6252 19.0336 37.0238 18.6149 37.52L9.48485 48.2999Z" fill="#002F7D"/>
<path d="M4.10477 42.9899C3.83174 43.2621 3.61512 43.5855 3.46732 43.9415C3.31951 44.2976 3.24341 44.6794 3.24341 45.0649C3.24341 45.4504 3.31951 45.8322 3.46732 46.1882C3.61512 46.5443 3.83174 46.8677 4.10477 47.1399C4.65665 47.6834 5.40018 47.988 6.17477 47.988C6.94937 47.988 7.6929 47.6834 8.24478 47.1399C8.51781 46.8677 8.73442 46.5443 8.88223 46.1882C9.03004 45.8322 9.10614 45.4504 9.10614 45.0649C9.10614 44.6794 9.03004 44.2976 8.88223 43.9415C8.73442 43.5855 8.51781 43.2621 8.24478 42.9899C7.69545 42.4415 6.95097 42.1335 6.17477 42.1335C5.39858 42.1335 4.6541 42.4415 4.10477 42.9899ZM7.32477 46.2198C7.17374 46.3738 6.99366 46.4963 6.79495 46.5802C6.59625 46.6641 6.38289 46.7077 6.16721 46.7085C5.95152 46.7093 5.73781 46.6673 5.53848 46.585C5.33915 46.5026 5.15813 46.3815 5.00595 46.2286C4.85377 46.0758 4.73346 45.8943 4.65195 45.6946C4.57043 45.4949 4.52935 45.281 4.5311 45.0653C4.53285 44.8496 4.5774 44.6364 4.66214 44.4381C4.74688 44.2398 4.87014 44.0602 5.02478 43.9099C5.17461 43.757 5.35358 43.6357 5.55112 43.5533C5.74865 43.4708 5.96073 43.4289 6.17477 43.4299C6.49847 43.4289 6.81512 43.5243 7.08438 43.704C7.35364 43.8836 7.56329 44.1394 7.68665 44.4387C7.81 44.738 7.84146 45.0672 7.77701 45.3844C7.71256 45.7016 7.55513 45.9924 7.32477 46.2198Z" fill="#002F7D"/>
<path d="M52.1748 0H9.06482C8.23734 0 7.44376 0.328705 6.85864 0.913818C6.27353 1.49893 5.94482 2.29252 5.94482 3.12V33.12C5.94482 33.2924 6.01332 33.4577 6.13522 33.5796C6.25712 33.7015 6.42243 33.77 6.59482 33.77C6.76721 33.77 6.93254 33.7015 7.05444 33.5796C7.17634 33.4577 7.24484 33.2924 7.24484 33.12V3.12C7.24484 2.6373 7.43658 2.17439 7.77789 1.83307C8.11921 1.49175 8.58213 1.29999 9.06482 1.29999H52.1748C52.6575 1.29999 53.1204 1.49175 53.4618 1.83307C53.8031 2.17439 53.9948 2.6373 53.9948 3.12V18.41C53.9948 19.2649 53.6559 20.085 53.0523 20.6904C52.4488 21.2959 51.6298 21.6374 50.7748 21.64C49.2772 21.6427 47.8416 22.2388 46.7826 23.2978C45.7236 24.3568 45.1275 25.7923 45.1248 27.29V38.74C45.1435 38.9937 45.1097 39.2485 45.0254 39.4886C44.9412 39.7286 44.8083 39.9487 44.6352 40.1351C44.462 40.3214 44.2523 40.4701 44.0191 40.5718C43.7859 40.6734 43.5342 40.7259 43.2798 40.7259C43.0254 40.7259 42.7738 40.6734 42.5406 40.5718C42.3074 40.4701 42.0976 40.3214 41.9245 40.1351C41.7513 39.9487 41.6185 39.7286 41.5342 39.4886C41.45 39.2485 41.4162 38.9937 41.4348 38.74V35.16C41.4348 34.7844 41.3609 34.4125 41.2171 34.0655C41.0734 33.7185 40.8627 33.4033 40.5972 33.1377C40.3316 32.8721 40.0163 32.6614 39.6693 32.5177C39.3223 32.374 38.9504 32.3 38.5748 32.3C38.1992 32.3 37.8273 32.374 37.4803 32.5177C37.1334 32.6614 36.8181 32.8721 36.5525 33.1377C36.2869 33.4033 36.0763 33.7185 35.9325 34.0655C35.7888 34.4125 35.7148 34.7844 35.7148 35.16V46.8C35.7148 47.288 35.521 47.756 35.1759 48.1011C34.8308 48.4461 34.3628 48.64 33.8748 48.64C33.3868 48.64 32.9188 48.4461 32.5738 48.1011C32.2287 47.756 32.0348 47.288 32.0348 46.8V42.22C32.0348 41.4615 31.7335 40.734 31.1971 40.1977C30.6608 39.6613 29.9334 39.36 29.1748 39.36C28.4163 39.36 27.6889 39.6613 27.1525 40.1977C26.6161 40.734 26.3148 41.4615 26.3148 42.22V46.8C26.2805 47.2658 26.0712 47.7015 25.729 48.0194C25.3868 48.3373 24.9369 48.5141 24.4698 48.5141C24.0027 48.5141 23.5529 48.3373 23.2107 48.0194C22.8684 47.7015 22.6591 47.2658 22.6248 46.8V43.62C22.6222 42.9631 22.3601 42.3338 21.8955 41.8693C21.431 41.4047 20.8018 41.1426 20.1448 41.14C19.9724 41.14 19.8071 41.2085 19.6852 41.3304C19.5633 41.4523 19.4948 41.6176 19.4948 41.79C19.4948 41.9624 19.5633 42.1277 19.6852 42.2496C19.8071 42.3715 19.9724 42.44 20.1448 42.44C20.4578 42.44 20.7579 42.5643 20.9792 42.7856C21.2005 43.0069 21.3248 43.307 21.3248 43.62V46.8C21.3702 47.6034 21.7213 48.3591 22.3061 48.9119C22.8909 49.4646 23.6651 49.7726 24.4698 49.7726C25.2745 49.7726 26.0487 49.4646 26.6336 48.9119C27.2184 48.3591 27.5695 47.6034 27.6148 46.8V42.22C27.6148 41.8062 27.7792 41.4094 28.0717 41.1169C28.3643 40.8243 28.7611 40.66 29.1748 40.66C29.5886 40.66 29.9854 40.8243 30.2779 41.1169C30.5705 41.4094 30.7348 41.8062 30.7348 42.22V46.8C30.7348 47.6328 31.0656 48.4315 31.6545 49.0203C32.2434 49.6092 33.042 49.94 33.8748 49.94C34.7076 49.94 35.5063 49.6092 36.0952 49.0203C36.684 48.4315 37.0148 47.6328 37.0148 46.8V35.16C37.0148 34.7462 37.1792 34.3494 37.4717 34.0569C37.7643 33.7643 38.1611 33.6 38.5748 33.6C38.9886 33.6 39.3854 33.7643 39.6779 34.0569C39.9705 34.3494 40.1348 34.7462 40.1348 35.16V38.74C40.1107 39.1679 40.1741 39.5963 40.3213 39.9988C40.4684 40.4014 40.6962 40.7697 40.9906 41.0812C41.285 41.3927 41.6399 41.6408 42.0335 41.8104C42.4271 41.9799 42.8512 42.0674 43.2798 42.0674C43.7084 42.0674 44.1325 41.9799 44.5262 41.8104C44.9198 41.6408 45.2747 41.3927 45.5691 41.0812C45.8635 40.7697 46.0912 40.4014 46.2384 39.9988C46.3855 39.5963 46.449 39.1679 46.4248 38.74V27.29C46.4248 26.1363 46.8831 25.0298 47.6989 24.2141C48.5147 23.3983 49.6212 22.94 50.7748 22.94C51.9745 22.9374 53.1242 22.4589 53.9716 21.6097C54.8189 20.7604 55.2948 19.6097 55.2948 18.41V3.12C55.2948 2.29252 54.9661 1.49893 54.381 0.913818C53.7959 0.328705 53.0023 0 52.1748 0Z" fill="#002F7D"/>
</svg>
