<svg width="54" height="56" viewBox="0 0 54 56" fill="none" xmlns="http://www.w3.org/2000/svg">
<path d="M53.3035 46.71L39.4335 32.84C39.3136 32.7194 39.171 32.6236 39.014 32.5583C38.8569 32.493 38.6886 32.4593 38.5185 32.4593C38.3484 32.4593 38.18 32.493 38.0229 32.5583C37.8659 32.6236 37.7233 32.7194 37.6035 32.84L35.3935 35.05L28.3135 27.97C27.8903 27.543 27.6528 26.9662 27.6528 26.365C27.6528 25.7638 27.8903 25.187 28.3135 24.76L42.8735 10.2C43.1937 9.88048 43.4477 9.50093 43.621 9.0831C43.7944 8.66527 43.8836 8.21735 43.8836 7.765C43.8836 7.31264 43.7944 6.86475 43.621 6.44691C43.4477 6.02908 43.1937 5.64953 42.8735 5.33L39.6135 2.07001C38.9594 1.44 38.0866 1.08803 37.1785 1.08803C36.2703 1.08803 35.3975 1.44 34.7435 2.07001L34.4235 2.38L32.0435 0L29.7134 0.940002C29.2441 0.661545 28.6964 0.544979 28.1544 0.608215C27.6123 0.671452 27.106 0.910994 26.7134 1.29001L0.71344 27.29C0.487275 27.5157 0.30785 27.7838 0.185425 28.0789C0.0629995 28.3741 0 28.6905 0 29.01C0 29.3295 0.0629995 29.6459 0.185425 29.9411C0.30785 30.2362 0.487275 30.5043 0.71344 30.73L6.96344 36.98C7.18778 37.2086 7.45547 37.3902 7.75079 37.5141C8.04612 37.6381 8.36319 37.7019 8.68347 37.7019C9.00375 37.7019 9.32083 37.6381 9.61615 37.5141C9.91147 37.3902 10.1791 37.2086 10.4034 36.98L36.4034 10.98C36.7933 10.5937 37.0403 10.0864 37.1039 9.54131C37.1675 8.99619 37.044 8.44565 36.7535 7.98001L37.6935 5.66L35.3135 3.28001L35.6235 2.97C36.0296 2.58821 36.5661 2.37566 37.1235 2.37566C37.6809 2.37566 38.2173 2.58821 38.6235 2.97L41.8835 6.23001C42.0828 6.42775 42.2411 6.66296 42.3492 6.9221C42.4574 7.18125 42.5132 7.45921 42.5135 7.74001C42.5122 8.30995 42.2858 8.8563 41.8835 9.26001L27.3235 23.82C26.6711 24.4887 26.306 25.3858 26.306 26.32C26.306 27.2542 26.6711 28.1513 27.3235 28.82L34.4034 35.9L32.1935 38.1C31.9563 38.3476 31.8239 38.6772 31.8239 39.02C31.8239 39.3628 31.9563 39.6924 32.1935 39.94L46.0735 53.81C46.3145 54.0522 46.6418 54.1889 46.9835 54.19C47.3282 54.1893 47.6587 54.0528 47.9034 53.81L53.2335 48.47C53.3541 48.3501 53.4499 48.2076 53.5152 48.0505C53.5805 47.8935 53.6141 47.7251 53.6141 47.555C53.6141 47.3849 53.5805 47.2165 53.5152 47.0595C53.4499 46.9025 53.3541 46.7599 53.2335 46.64L53.3035 46.71ZM9.49347 36.09C9.27664 36.2932 8.99063 36.4063 8.69348 36.4063C8.39633 36.4063 8.11033 36.2932 7.89349 36.09L1.64349 29.83C1.53827 29.725 1.45479 29.6003 1.39783 29.4631C1.34087 29.3258 1.31152 29.1786 1.31152 29.03C1.31152 28.8814 1.34087 28.7342 1.39783 28.5969C1.45479 28.4597 1.53827 28.335 1.64349 28.23L27.6435 2.23001C27.7483 2.12469 27.873 2.04127 28.0103 1.98462C28.1477 1.92796 28.2949 1.8992 28.4435 1.90001C28.7429 1.90165 29.0299 2.02004 29.2435 2.23001L35.4935 8.48001C35.7042 8.69498 35.8222 8.98399 35.8222 9.285C35.8222 9.58602 35.7042 9.87504 35.4935 10.09L9.49347 36.09ZM35.8135 6.93001L30.8135 1.93001L31.7535 1.54001L36.2234 6.01001L35.8135 6.93001ZM38.5235 33.71L39.6735 34.86L34.3335 40.19L33.1835 39.04L38.5235 33.71ZM47.0535 52.91L35.2535 41.11L40.5835 35.78L52.3835 47.57L47.0535 52.91Z" fill="#002F7D"/>
<path d="M22.8192 9.38366L3.5293 28.6736L4.44853 29.5928L23.7384 10.3029L22.8192 9.38366Z" fill="#002F7D"/>
<path d="M25.0002 7.25248L24.2012 8.05151L25.1204 8.97074L25.9194 8.17171L25.0002 7.25248Z" fill="#002F7D"/>
<path d="M43.5134 13.37V18.89C43.5134 19.4823 43.2788 20.0506 42.8608 20.4704C42.4429 20.8902 41.8757 21.1273 41.2834 21.13H40.1734C39.4484 21.13 38.753 21.4173 38.2394 21.929C37.7259 22.4407 37.4361 23.135 37.4334 23.86V24.71C37.4321 25.7931 37.147 26.8569 36.6066 27.7956C36.0662 28.7342 35.2894 29.5149 34.3534 30.06C34.2794 30.1015 34.2144 30.1574 34.1621 30.2243C34.1099 30.2912 34.0715 30.3678 34.0491 30.4497C34.0268 30.5316 34.021 30.6171 34.032 30.7013C34.0431 30.7855 34.0707 30.8666 34.1134 30.94C34.1549 31.0154 34.2112 31.0816 34.2789 31.1347C34.3466 31.1878 34.4243 31.2268 34.5074 31.2492C34.5905 31.2716 34.6772 31.277 34.7625 31.2651C34.8477 31.2532 34.9296 31.2243 35.0034 31.18C36.138 30.5226 37.0804 29.5792 37.7366 28.444C38.3929 27.3087 38.74 26.0213 38.7434 24.71V23.86C38.7461 23.4798 38.8989 23.1161 39.1687 22.8482C39.4385 22.5803 39.8032 22.43 40.1834 22.43H41.2934C42.2305 22.4273 43.1284 22.0532 43.7901 21.3896C44.4518 20.726 44.8234 19.8271 44.8234 18.89V13.37C44.8234 13.1976 44.755 13.0323 44.6331 12.9104C44.5112 12.7885 44.3458 12.72 44.1734 12.72C44.001 12.72 43.8357 12.7885 43.7138 12.9104C43.5919 13.0323 43.5234 13.1976 43.5234 13.37H43.5134Z" fill="#002F7D"/>
<path d="M28.3836 33.44C26.7545 35.1844 25.85 37.4832 25.8536 39.87V52.08C25.854 52.6033 25.6494 53.1059 25.2836 53.48C24.9056 53.8474 24.4007 54.0551 23.8736 54.06C23.3432 54.06 22.8344 53.8493 22.4594 53.4742C22.0843 53.0992 21.8736 52.5905 21.8736 52.06V38.57C21.871 38.2566 21.8065 37.9468 21.6838 37.6584C21.5612 37.37 21.3828 37.1086 21.1589 36.8894C20.9349 36.6701 20.6699 36.4972 20.379 36.3806C20.088 36.264 19.7769 36.206 19.4636 36.21C18.8517 36.2126 18.2657 36.4569 17.8331 36.8895C17.4004 37.3222 17.1562 37.9082 17.1536 38.52V46.45C17.1536 46.9804 16.9429 47.4891 16.5678 47.8642C16.1927 48.2393 15.684 48.45 15.1536 48.45C14.6231 48.45 14.1145 48.2393 13.7394 47.8642C13.3643 47.4891 13.1536 46.9804 13.1536 46.45V42.33C13.1536 41.7041 12.9049 41.1038 12.4623 40.6612C12.0198 40.2187 11.4195 39.97 10.7936 39.97C10.1677 39.97 9.5674 40.2187 9.12482 40.6612C8.68223 41.1038 8.43359 41.7041 8.43359 42.33V50.21C8.43402 50.7382 8.2255 51.245 7.85358 51.62C7.67176 51.8031 7.45506 51.9479 7.21631 52.0458C6.97756 52.1437 6.72159 52.1928 6.46356 52.19C5.93313 52.19 5.42445 51.9793 5.04938 51.6042C4.6743 51.2292 4.46356 50.7205 4.46356 50.19V38.71C4.46356 38.5376 4.39509 38.3723 4.27319 38.2504C4.15129 38.1285 3.98599 38.06 3.8136 38.06C3.64121 38.06 3.47584 38.1285 3.35394 38.2504C3.23204 38.3723 3.16357 38.5376 3.16357 38.71V50.21C3.16357 51.0799 3.50915 51.9142 4.12427 52.5293C4.73939 53.1444 5.57369 53.49 6.4436 53.49C7.31178 53.4874 8.14351 53.1406 8.75647 52.5258C9.36943 51.911 9.71357 51.0782 9.71356 50.21V42.33C9.71356 42.0489 9.82526 41.7793 10.024 41.5805C10.2228 41.3817 10.4925 41.27 10.7736 41.27C11.0547 41.27 11.3243 41.3817 11.5231 41.5805C11.7219 41.7793 11.8336 42.0489 11.8336 42.33V46.45C11.8363 47.3182 12.183 48.1499 12.7978 48.7629C13.4126 49.3758 14.2454 49.72 15.1136 49.72C15.5464 49.7193 15.9746 49.6303 16.3718 49.4583C16.769 49.2864 17.1269 49.0351 17.4236 48.72C17.7355 48.4208 17.9846 48.0624 18.1563 47.6658C18.328 47.2691 18.4189 46.8422 18.4236 46.41V38.48C18.4236 38.2148 18.529 37.9604 18.7165 37.7729C18.904 37.5854 19.1584 37.48 19.4236 37.48C19.7056 37.48 19.9763 37.5914 20.1767 37.7899C20.3771 37.9884 20.491 38.258 20.4936 38.54V52.06C20.5399 52.8973 20.9051 53.6851 21.5142 54.2614C22.1233 54.8378 22.93 55.159 23.7686 55.159C24.6072 55.159 25.4139 54.8378 26.023 54.2614C26.6321 53.6851 26.9973 52.8973 27.0436 52.06V39.87C27.0421 37.8109 27.8211 35.8277 29.2236 34.32C29.3433 34.1968 29.4103 34.0318 29.4103 33.86C29.4103 33.6882 29.3433 33.5232 29.2236 33.4C29.1015 33.3061 28.9501 33.2585 28.7963 33.2659C28.6424 33.2732 28.4962 33.3349 28.3836 33.44Z" fill="#002F7D"/>
</svg>
