<svg width="64" height="64" viewBox="0 0 64 64" fill="none" xmlns="http://www.w3.org/2000/svg">
<g clip-path="url(#clip0)">
<path d="M17.3516 38.246C16.1587 38.246 15.6089 37.7363 15.0771 37.244L14.978 37.1523C14.7747 36.9677 14.4589 36.9794 14.2714 37.1826C14.0845 37.3857 14.0981 37.7022 14.3012 37.8886L14.3979 37.9775C14.9756 38.5127 15.7671 39.2461 17.3516 39.2461C17.6279 39.2461 17.8516 39.0224 17.8516 38.746C17.8516 38.4697 17.6279 38.246 17.3516 38.246Z" fill="#002F7D"/>
<path d="M13.2016 36.836C13.1127 36.5742 12.83 36.4375 12.5678 36.5225C10.4287 37.2461 7.2324 37.8984 4.61416 38.1445C4.33917 38.1709 4.13753 38.4141 4.16344 38.6895C4.18747 38.9482 4.40563 39.1426 4.6606 39.1426C4.67624 39.1426 4.69189 39.1417 4.70804 39.1406C7.3955 38.8876 10.6831 38.2157 12.8882 37.4696C13.1498 37.381 13.29 37.0977 13.2016 36.836Z" fill="#002F7D"/>
<path d="M32 38.2461C30.8076 38.2461 30.2583 37.7373 29.7265 37.2441C29.5229 37.0566 29.2079 37.0684 29.02 37.2715C28.8325 37.4735 28.8441 37.79 29.0468 37.9785C29.6244 38.5136 30.4155 39.246 32 39.246C32.2763 39.246 32.5 39.0225 32.5 38.7461C32.5 38.4697 32.2763 38.2461 32 38.2461Z" fill="#002F7D"/>
<path d="M27.8818 36.836C27.7931 36.5742 27.5108 36.4375 27.2481 36.5225C25.1235 37.2413 21.9228 37.8927 19.2842 38.1416C19.0092 38.168 18.8071 38.4122 18.8335 38.6866C18.8579 38.9453 19.0756 39.1397 19.3305 39.1397C19.346 39.1397 19.3622 39.1387 19.378 39.1376C22.0864 38.8807 25.378 38.2109 27.5684 37.4696C27.8301 37.381 27.9702 37.0977 27.8818 36.836Z" fill="#002F7D"/>
<path d="M46.6484 38.246C45.5605 38.246 45.0126 37.828 44.503 37.3632C44.2998 37.1767 43.9823 37.1903 43.7968 37.3955C43.6103 37.5995 43.6249 37.915 43.8291 38.1015C44.4354 38.6553 45.203 39.246 46.6483 39.246C46.9247 39.246 47.1485 39.0224 47.1485 38.746C47.1485 38.4696 46.9248 38.246 46.6484 38.246Z" fill="#002F7D"/>
<path d="M42.5683 36.836C42.4805 36.5742 42.1982 36.4375 41.9346 36.5225C39.8612 37.2237 36.579 37.8897 33.9531 38.1396C33.6777 38.1661 33.4766 38.4101 33.502 38.6855C33.5275 38.9442 33.7442 39.1376 34 39.1376C34.0157 39.1376 34.0313 39.1367 34.0468 39.1357C36.7851 38.874 40.0839 38.205 42.2548 37.4696C42.5165 37.381 42.6562 37.0978 42.5683 36.836Z" fill="#002F7D"/>
<path d="M59.4609 37.6301C59.3007 37.504 59.1583 37.3713 59.0215 37.2443C58.4452 36.7111 57.7928 36.1077 56.5586 36.5226C54.4531 37.2344 51.2636 37.8849 48.621 38.1387C48.3457 38.1652 48.1445 38.4102 48.1719 38.6846C48.1962 38.9433 48.4141 39.1367 48.6679 39.1367C48.6846 39.1367 48.7012 39.1357 48.717 39.1349C51.4278 38.8732 54.7081 38.2042 56.878 37.4699C57.5235 37.2552 57.7783 37.4543 58.3418 37.9778C58.4963 38.1213 58.6582 38.2698 58.838 38.4132C59.0546 38.5861 59.3692 38.549 59.541 38.3331C59.713 38.1165 59.6769 37.8019 59.4609 37.6301Z" fill="#002F7D"/>
<path d="M18.25 31.2468C17.1436 31.2468 16.6407 30.7805 16.1543 30.3293C15.9511 30.1408 15.6352 30.1525 15.4477 30.3561C15.2602 30.5582 15.2719 30.8748 15.4745 31.0626C16.0131 31.5621 16.7508 32.2467 18.2498 32.2467C18.5262 32.2467 18.75 32.0232 18.75 31.7468C18.75 31.4704 18.5263 31.2468 18.25 31.2468Z" fill="#002F7D"/>
<path d="M14.4266 29.9418C14.3379 29.68 14.0546 29.5419 13.7929 29.6282C11.8642 30.2811 8.92564 30.8852 6.48038 31.1317C6.20601 31.1595 6.00524 31.4047 6.03315 31.6796C6.05906 31.9374 6.27635 32.1293 6.53019 32.1293C6.54672 32.1293 6.56386 32.1283 6.58101 32.1268C9.09311 31.8733 12.1205 31.2498 14.1132 30.5755C14.3748 30.4871 14.515 30.203 14.4266 29.9418Z" fill="#002F7D"/>
<path d="M31.9999 31.2467C30.9916 31.2467 30.4854 30.8605 30.0136 30.4303C29.8105 30.2433 29.4941 30.257 29.3076 30.4625C29.1209 30.6661 29.1357 30.9826 29.3397 31.1686C29.9111 31.6901 30.6347 32.2467 31.9999 32.2467C32.2763 32.2467 32.5 32.0231 32.5 31.7467C32.5 31.4703 32.2763 31.2467 31.9999 31.2467Z" fill="#002F7D"/>
<path d="M28.1728 29.942C28.084 29.6803 27.7988 29.5421 27.539 29.6285C25.6048 30.2832 22.6615 30.8883 20.2148 31.1338C19.9399 31.1616 19.7396 31.4063 19.7671 31.6812C19.793 31.939 20.0102 32.1314 20.2641 32.1314C20.2807 32.1314 20.2974 32.1304 20.3144 32.1289C22.829 31.8766 25.8612 31.2525 27.8592 30.5757C28.1209 30.487 28.2611 30.2032 28.1728 29.942Z" fill="#002F7D"/>
<path d="M45.7499 31.2467C44.7656 31.2467 44.2558 30.8688 43.8573 30.5147C43.6504 30.3331 43.3358 30.3516 43.1503 30.5576C42.9677 30.7642 42.9874 31.0806 43.1934 31.2637C43.7423 31.7495 44.4756 32.2466 45.7501 32.2466C46.0264 32.2466 46.2499 32.0231 46.2499 31.7467C46.2499 31.4704 46.0263 31.2467 45.7499 31.2467Z" fill="#002F7D"/>
<path d="M41.9267 29.9418C41.8378 29.68 41.5547 29.5419 41.2928 29.6282C39.3564 30.284 36.4062 30.8895 33.9501 31.1356C33.6758 31.1629 33.4745 31.4081 33.5019 31.683C33.5283 31.9408 33.7461 32.1332 34 32.1332C34.0156 32.1332 34.0331 32.1323 34.0497 32.1307C36.573 31.8777 39.6131 31.2528 41.6131 30.5755C41.8748 30.4871 42.0155 30.203 41.9267 29.9418Z" fill="#002F7D"/>
<path d="M57.5974 30.5073L57.3847 30.3124C56.8378 29.806 56.2206 29.2309 55.0428 29.6283C53.0996 30.2865 50.1425 30.8925 47.6855 31.1367C47.4111 31.164 47.2108 31.4087 47.2382 31.6835C47.2637 31.9419 47.4804 32.1342 47.7343 32.1342C47.7519 32.1342 47.7676 32.1332 47.785 32.1319C50.3103 31.8814 53.3553 31.2558 55.3631 30.5757C55.9744 30.3705 56.203 30.5816 56.7049 31.0459L56.9334 31.2553C57.1386 31.4371 57.4549 31.419 57.6395 31.2134C57.8221 31.0067 57.8045 30.691 57.5974 30.5073Z" fill="#002F7D"/>
<path d="M19.0897 25.2465C18.1484 25.2465 17.6894 24.8959 17.2275 24.4721C17.024 24.2847 16.7079 24.2979 16.5214 24.5024C16.3344 24.7055 16.3481 25.022 16.5517 25.2085C17.0986 25.7109 17.7909 26.2465 19.0897 26.2465C19.3661 26.2465 19.5898 26.0229 19.5898 25.7466C19.5898 25.4702 19.3661 25.2465 19.0897 25.2465Z" fill="#002F7D"/>
<path d="M15.4761 24.047C15.3881 23.7853 15.1044 23.6446 14.8427 23.7331C13.0366 24.3414 10.3183 24.9049 8.07907 25.1349C7.8047 25.1633 7.60494 25.4089 7.63272 25.6837C7.65913 25.9411 7.87642 26.1325 8.12989 26.1325C8.14703 26.1325 8.16406 26.1315 8.18158 26.1302C10.5231 25.8894 13.2632 25.3205 15.1621 24.6804C15.4239 24.5924 15.5646 24.3088 15.4761 24.047Z" fill="#002F7D"/>
<path d="M32.0078 25.2467C31.0927 25.2467 30.6195 24.8946 30.2479 24.5651C30.0409 24.381 29.7245 24.3995 29.5419 24.6075C29.3587 24.814 29.3773 25.13 29.5843 25.3131C30.1044 25.7748 30.7997 26.2466 32.0076 26.2466C32.2841 26.2466 32.5077 26.0232 32.5077 25.7468C32.5077 25.4704 32.2843 25.2467 32.0078 25.2467Z" fill="#002F7D"/>
<path d="M28.4266 24.0468C28.3391 23.7861 28.0545 23.6444 27.7933 23.7329C25.9999 24.337 23.2758 24.8995 21.014 25.1328C20.7391 25.1612 20.5394 25.4073 20.5678 25.6816C20.5947 25.939 20.8114 26.1304 21.0648 26.1304C21.0818 26.1304 21.099 26.1294 21.1166 26.128C23.4447 25.8873 26.2562 25.3058 28.1127 24.6802C28.3744 24.5922 28.515 24.3086 28.4266 24.0468Z" fill="#002F7D"/>
<path d="M44.9258 25.2465C44.1017 25.2465 43.6564 24.973 43.296 24.6776C43.0821 24.5014 42.7666 24.5345 42.5918 24.7464C42.4171 24.9599 42.4474 25.2749 42.6613 25.4501C43.1125 25.8213 43.7775 26.2464 44.9259 26.2464C45.2023 26.2464 45.4258 26.0229 45.4258 25.7465C45.4258 25.4702 45.2022 25.2465 44.9258 25.2465Z" fill="#002F7D"/>
<path d="M41.3837 24.0468C41.2957 23.7861 41.0117 23.6444 40.7499 23.7329C38.9706 24.332 36.2382 24.8945 33.9482 25.1318C33.6738 25.1606 33.4745 25.4063 33.502 25.6811C33.5294 25.938 33.7462 26.1294 34 26.1294C34.0165 26.1294 34.0342 26.1284 34.0517 26.127C36.4071 25.8823 39.2273 25.3008 41.0702 24.6802C41.3319 24.5922 41.4726 24.3086 41.3837 24.0468Z" fill="#002F7D"/>
<path d="M56.002 24.4907L55.8789 24.3769C55.3829 23.919 54.7668 23.3487 53.6486 23.733C51.8672 24.3325 49.1476 24.8936 46.8819 25.1289C46.6075 25.1577 46.4083 25.4034 46.4356 25.6783C46.4629 25.9351 46.6798 26.1265 46.9336 26.1265C46.9502 26.1265 46.9677 26.1255 46.9852 26.124C49.3163 25.8813 52.1229 25.3012 53.9686 24.6796C54.4999 24.5 54.6991 24.6484 55.1992 25.1113L55.33 25.231C55.5341 25.417 55.8507 25.4018 56.0362 25.1973C56.2218 24.9926 56.2071 24.6767 56.002 24.4907Z" fill="#002F7D"/>
<path d="M19.75 20.2466C18.8886 20.2466 18.4565 19.9258 18.0874 19.5972C17.8817 19.4136 17.5659 19.4308 17.3818 19.6378C17.1977 19.8438 17.2157 20.1597 17.4222 20.3433C17.9233 20.7902 18.5913 21.2467 19.75 21.2467C20.0263 21.2467 20.25 21.0229 20.25 20.7465C20.25 20.4701 20.0263 20.2466 19.75 20.2466Z" fill="#002F7D"/>
<path d="M16.3515 19.1273C16.2632 18.8655 15.9794 18.7249 15.7182 18.8123C14.0137 19.3856 11.537 19.9022 9.40865 20.1292C9.13378 20.1587 8.93501 20.4047 8.9643 20.6791C8.99159 20.9359 9.20838 21.1263 9.46084 21.1263C9.47836 21.1263 9.49651 21.1253 9.51416 21.1234C11.709 20.8896 14.269 20.3549 16.0366 19.7606C16.2983 19.6722 16.4394 19.389 16.3515 19.1273Z" fill="#002F7D"/>
<path d="M32 20.2468C31.2193 20.2468 30.7938 19.9816 30.4506 19.695C30.2387 19.5183 29.9243 19.5466 29.7466 19.7585C29.5698 19.9704 29.5981 20.2852 29.81 20.4625C30.247 20.8278 30.8911 21.2467 32 21.2467C32.2763 21.2467 32.5 21.023 32.5 20.7467C32.5 20.4703 32.2763 20.2468 32 20.2468Z" fill="#002F7D"/>
<path d="M28.6353 19.1275C28.547 18.8658 28.2632 18.7251 28.002 18.8126C26.333 19.3736 23.7837 19.9029 21.6586 20.1295C21.3843 20.1588 21.1855 20.4048 21.2148 20.6797C21.2421 20.9361 21.4589 21.1264 21.7113 21.1264C21.7289 21.1264 21.747 21.1254 21.7652 21.1237C23.9551 20.8902 26.5893 20.3424 28.3203 19.7609C28.5821 19.6725 28.7232 19.3892 28.6353 19.1275Z" fill="#002F7D"/>
<path d="M44.2499 20.2466C43.5184 20.2466 43.1074 20.0083 42.832 19.8007C42.6112 19.6353 42.2968 19.6787 42.1308 19.9004C41.9657 20.121 42.0097 20.4346 42.2304 20.6006C42.8183 21.0414 43.459 21.2465 44.2499 21.2465C44.5263 21.2465 44.75 21.0229 44.75 20.7465C44.75 20.4701 44.5263 20.2466 44.2499 20.2466Z" fill="#002F7D"/>
<path d="M40.9257 19.1275C40.8379 18.8658 40.5548 18.7251 40.2921 18.8126C38.6427 19.3672 36.0938 19.8952 33.9474 20.1256C33.672 20.1549 33.4727 20.4015 33.503 20.6758C33.5304 20.9325 33.7471 21.1225 34.0001 21.1225C34.0176 21.1225 34.0352 21.1215 34.0526 21.1197C36.2646 20.8825 38.9003 20.3361 40.6102 19.7609C40.873 19.6725 41.0137 19.3892 40.9257 19.1275Z" fill="#002F7D"/>
<path d="M54.6514 19.428C54.1778 18.9904 53.5878 18.4464 52.5127 18.8126C50.8652 19.3668 48.333 19.8937 46.2129 20.1236C45.9375 20.1534 45.7403 20.4 45.7695 20.6744C45.797 20.9306 46.0136 21.1206 46.2656 21.1206C46.2841 21.1206 46.3028 21.1196 46.3203 21.1178C48.5391 20.8772 51.0956 20.3444 52.8338 19.7599C53.3221 19.5919 53.4979 19.7232 53.9745 20.1647C54.1768 20.3522 54.4921 20.3376 54.6806 20.1359C54.8672 19.9328 54.8534 19.6155 54.6514 19.428Z" fill="#002F7D"/>
<path d="M16.2498 46.2464C14.9539 46.2464 14.3573 45.6936 13.7801 45.1593C13.1688 44.5931 12.475 43.9485 11.1679 44.3938C8.19668 45.3978 3.31142 46.2464 0.499917 46.2464C0.223548 46.2464 0 46.4699 0 46.7463C0 47.0227 0.223548 47.2463 0.499917 47.2463C3.4506 47.2463 8.3798 46.3918 11.4882 45.3411C12.2338 45.092 12.5228 45.3585 13.101 45.8927C13.7178 46.4639 14.5619 47.2462 16.2499 47.2462C16.5263 47.2462 16.7498 47.0227 16.7498 46.7463C16.7498 46.4699 16.5262 46.2464 16.2498 46.2464Z" fill="#002F7D"/>
<path d="M31.9999 46.2464C30.7041 46.2464 30.1074 45.6936 29.5303 45.1593C28.9194 44.5931 28.2255 43.9485 26.9179 44.3938C23.9467 45.3978 19.0614 46.2464 16.2499 46.2464C15.9736 46.2464 15.7499 46.4699 15.7499 46.7463C15.7499 47.0227 15.9736 47.2463 16.2499 47.2463C19.2006 47.2463 24.1298 46.3918 27.2382 45.3411C27.9828 45.092 28.2728 45.3585 28.851 45.8927C29.4678 46.4639 30.3119 47.2462 31.9999 47.2462C32.2763 47.2462 32.5 47.0227 32.5 46.7463C32.5 46.4699 32.2763 46.2464 31.9999 46.2464Z" fill="#002F7D"/>
<path d="M47.7498 46.2464C46.453 46.2464 45.8573 45.6936 45.2802 45.1593C44.6689 44.5931 43.9754 43.9485 42.6679 44.3938C39.6972 45.3978 34.8116 46.2464 32 46.2464C31.7236 46.2464 31.4999 46.4699 31.4999 46.7463C31.4999 47.0227 31.7236 47.2463 32 47.2463C34.9511 47.2463 39.8798 46.3918 42.9882 45.3411C43.7305 45.092 44.0235 45.3585 44.6005 45.8927C45.2168 46.4639 46.0625 47.2462 47.75 47.2462C48.0263 47.2462 48.2498 47.0227 48.2498 46.7463C48.2498 46.4699 48.0262 46.2464 47.7498 46.2464Z" fill="#002F7D"/>
<path d="M63.4998 46.2464C62.203 46.2464 61.6073 45.6936 61.0301 45.1593C60.418 44.5931 59.7264 43.9485 58.4179 44.3938C55.4472 45.3978 50.5614 46.2464 47.7499 46.2464C47.4736 46.2464 47.25 46.4699 47.25 46.7463C47.25 47.0227 47.4736 47.2463 47.7499 47.2463C50.7011 47.2463 55.6298 46.3918 58.7382 45.3411C59.4815 45.092 59.7725 45.3585 60.3505 45.8927C60.9668 46.4639 61.8124 47.2462 63.4999 47.2462C63.7763 47.2462 63.9997 47.0227 63.9997 46.7463C63.9997 46.4699 63.7762 46.2464 63.4998 46.2464Z" fill="#002F7D"/>
<path d="M16.2498 48.2463C14.9539 48.2463 14.3573 47.6935 13.7801 47.1593C13.1688 46.5929 12.475 45.9483 11.1679 46.3937C8.19668 47.3976 3.31142 48.2463 0.499917 48.2463C0.223548 48.2463 0 48.4698 0 48.7463C0 49.0226 0.223548 49.2462 0.499917 49.2462C3.4506 49.2462 8.3798 48.3917 11.4882 47.3409C12.2338 47.092 12.5228 47.3583 13.101 47.8927C13.7178 48.4638 14.5619 49.2461 16.2499 49.2461C16.5263 49.2461 16.75 49.0224 16.7498 48.7463C16.7498 48.4698 16.5262 48.2463 16.2498 48.2463Z" fill="#002F7D"/>
<path d="M31.9999 48.2463C30.7041 48.2463 30.1074 47.6935 29.5303 47.1593C28.9194 46.5929 28.2255 45.9483 26.9179 46.3937C23.9467 47.3976 19.0614 48.2463 16.2499 48.2463C15.9736 48.2463 15.7499 48.4698 15.7499 48.7463C15.7499 49.0226 15.9736 49.2462 16.2499 49.2462C19.2006 49.2462 24.1298 48.3917 27.2382 47.3409C27.9828 47.092 28.2728 47.3583 28.851 47.8927C29.4678 48.4638 30.3119 49.2461 31.9999 49.2461C32.2763 49.2461 32.5 49.0224 32.5 48.7463C32.5 48.4698 32.2763 48.2463 31.9999 48.2463Z" fill="#002F7D"/>
<path d="M47.7498 48.2463C46.453 48.2463 45.8573 47.6935 45.2802 47.1593C44.6689 46.5929 43.9754 45.9483 42.6679 46.3937C39.6972 47.3976 34.8116 48.2463 32 48.2463C31.7236 48.2463 31.4999 48.4698 31.4999 48.7463C31.4999 49.0226 31.7236 49.2462 32 49.2462C34.9511 49.2462 39.8798 48.3917 42.9882 47.3409C43.7305 47.092 44.0235 47.3583 44.6005 47.8927C45.2168 48.4638 46.0625 49.2461 47.75 49.2461C48.0263 49.2461 48.2499 49.0224 48.2498 48.7463C48.2498 48.4698 48.0262 48.2463 47.7498 48.2463Z" fill="#002F7D"/>
<path d="M63.4998 48.2463C62.203 48.2463 61.6073 47.6935 61.0301 47.1593C60.418 46.5929 59.7264 45.9483 58.4179 46.3937C55.4472 47.3976 50.5614 48.2463 47.7499 48.2463C47.4736 48.2463 47.25 48.4698 47.25 48.7463C47.25 49.0226 47.4736 49.2462 47.7499 49.2462C50.7011 49.2462 55.6298 48.3917 58.7382 47.3409C59.4815 47.092 59.7725 47.3583 60.3505 47.8927C60.9668 48.4638 61.8124 49.2461 63.4999 49.2461C63.7763 49.2461 63.9999 49.0224 63.9997 48.7463C63.9997 48.4698 63.7762 48.2463 63.4998 48.2463Z" fill="#002F7D"/>
<path d="M20.2499 16.2464C19.3333 16.2464 18.9262 15.869 18.495 15.4691C18.0366 15.0443 17.4647 14.5168 16.4188 14.8709C14.2001 15.6164 10.5735 16.2464 8.49987 16.2464C8.22351 16.2464 7.99983 16.47 7.99983 16.7464C7.99983 17.0228 8.22351 17.2465 8.49987 17.2465C10.6996 17.2465 14.3949 16.6062 16.7386 15.8187C17.1996 15.6615 17.3646 15.7854 17.8153 16.2024C18.2904 16.6428 18.9413 17.2463 20.2499 17.2463C20.5263 17.2463 20.75 17.0228 20.75 16.7464C20.75 16.47 20.5263 16.2464 20.2499 16.2464Z" fill="#002F7D"/>
<path d="M32 16.2464C31.0834 16.2464 30.6763 15.869 30.2451 15.4691C29.7866 15.0443 29.2148 14.5168 28.1689 14.8709C25.9502 15.6164 22.3238 16.2464 20.25 16.2464C19.9736 16.2464 19.75 16.47 19.75 16.7464C19.75 17.0228 19.9736 17.2465 20.25 17.2465C22.4497 17.2465 26.145 16.6062 28.4887 15.8187C28.9501 15.6615 29.1152 15.7854 29.5654 16.2024C30.0404 16.6428 30.6913 17.2463 31.9999 17.2463C32.2763 17.2463 32.5001 17.0228 32.5001 16.7464C32.5001 16.47 32.2764 16.2464 32 16.2464Z" fill="#002F7D"/>
<path d="M43.75 16.2466C42.832 16.2466 42.4237 15.8687 41.9922 15.4683C41.5332 15.044 40.9629 14.5152 39.919 14.8711C37.7002 15.6166 34.0742 16.2466 32 16.2466C31.7236 16.2466 31.4999 16.4703 31.4999 16.7466C31.4999 17.023 31.7236 17.2467 32 17.2467C34.1991 17.2467 37.8946 16.6065 40.2402 15.8184C40.6982 15.6622 40.8632 15.7861 41.3124 16.2022C41.789 16.643 42.4414 17.2466 43.75 17.2466C44.0264 17.2466 44.2499 17.023 44.2499 16.7466C44.2499 16.4703 44.0264 16.2466 43.75 16.2466Z" fill="#002F7D"/>
<path d="M55.5001 16.2466C54.5821 16.2466 54.1738 15.8687 53.7421 15.4683C53.2832 15.044 52.7148 14.5152 51.6689 14.8711C49.4502 15.6166 45.8241 16.2466 43.75 16.2466C43.4736 16.2466 43.25 16.4703 43.25 16.7466C43.25 17.023 43.4736 17.2467 43.75 17.2467C45.9492 17.2467 49.6446 16.6065 51.9902 15.8184C52.4492 15.6622 52.6132 15.7861 53.0624 16.2022C53.5391 16.643 54.1914 17.2466 55.5001 17.2466C55.7763 17.2466 56 17.023 56 16.7466C56 16.4703 55.7763 16.2466 55.5001 16.2466Z" fill="#002F7D"/>
<path d="M8.6289 16.2636C8.36467 16.1939 8.0883 16.3511 8.01708 16.6177L0.0170345 46.6172C-0.0543107 46.8838 0.104401 47.1583 0.371007 47.2295C0.41444 47.2413 0.457497 47.2462 0.500429 47.2462C0.721224 47.2462 0.923244 47.0987 0.982823 46.875L8.98287 16.8754C9.05422 16.6083 8.8955 16.3344 8.6289 16.2636Z" fill="#002F7D"/>
<path d="M63.9825 46.6173L55.9825 16.6178C55.9121 16.3506 55.6388 16.1934 55.3712 16.2637C55.1046 16.3346 54.9455 16.6084 55.0177 16.8755L63.0176 46.875C63.0762 47.0987 63.2792 47.2462 63.5 47.2462C63.5431 47.2462 63.586 47.2403 63.6291 47.2296C63.8957 47.1583 64.0548 46.8839 63.9825 46.6173Z" fill="#002F7D"/>
<path d="M59.0653 44.7559L52.3153 15.2339C52.2538 14.9639 51.9844 14.7953 51.7167 14.8579C51.4473 14.9195 51.2793 15.1876 51.3407 15.4566L58.0907 44.9784C58.1434 45.2099 58.3496 45.3671 58.5781 45.3671C58.6153 45.3671 58.6524 45.3632 58.6893 45.3544C58.9589 45.293 59.1269 45.0254 59.0653 44.7559Z" fill="#002F7D"/>
<path d="M40.5761 15.2988C40.5507 15.0234 40.3018 14.8184 40.0312 14.8472C39.7569 14.8731 39.5548 15.1168 39.5801 15.3917L42.3301 44.913C42.3545 45.1728 42.5723 45.3671 42.8281 45.3671C42.8438 45.3671 42.8594 45.3661 42.8751 45.3651C43.1494 45.3399 43.3516 45.0955 43.3262 44.8212L40.5761 15.2988Z" fill="#002F7D"/>
<path d="M28.3491 14.8457C28.0927 14.8262 27.8408 15.0483 27.8286 15.3242L26.5786 44.8457C26.5668 45.1221 26.7812 45.3554 27.0571 45.3671C27.064 45.3671 27.0712 45.3671 27.0786 45.3671C27.3447 45.3671 27.5664 45.1572 27.5775 44.8886L28.8276 15.3661C28.8394 15.0903 28.625 14.8573 28.3491 14.8457Z" fill="#002F7D"/>
<path d="M16.6655 14.8532C16.3916 14.8028 16.1343 14.9859 16.0859 15.2579L10.8359 44.7794C10.7876 45.0519 10.9687 45.3116 11.2407 45.3594C11.27 45.3643 11.2998 45.3672 11.3286 45.3672C11.5663 45.3672 11.7773 45.1973 11.8203 44.9551L17.0703 15.4327C17.1187 15.1607 16.9375 14.9015 16.6655 14.8532Z" fill="#002F7D"/>
<path d="M20.316 16.251C20.0407 16.2178 19.7911 16.4072 19.7545 16.6807L15.7544 46.6797C15.7178 46.954 15.9103 47.205 16.1841 47.2422C16.2065 47.245 16.2286 47.246 16.2505 47.246C16.4976 47.246 16.7118 47.0634 16.7458 46.8125L20.7457 16.8125C20.7824 16.539 20.5899 16.2875 20.316 16.251Z" fill="#002F7D"/>
<path d="M32 16.2465C31.7236 16.2465 31.4999 16.4701 31.4999 16.7465V46.746C31.4999 47.0224 31.7236 47.2461 32 47.2461C32.2763 47.2461 32.5 47.0224 32.5 46.746V16.7465C32.5 16.4701 32.2763 16.2465 32 16.2465Z" fill="#002F7D"/>
<path d="M48.2461 46.6795L44.2461 16.6805C44.209 16.4072 43.9611 16.2177 43.6836 16.2508C43.4102 16.2875 43.2178 16.5388 43.2539 16.8123L47.2539 46.8123C47.2881 47.0634 47.502 47.2461 47.75 47.2461C47.7715 47.2461 47.793 47.2451 47.8163 47.242C48.0898 47.2049 48.2822 46.9539 48.2461 46.6795Z" fill="#002F7D"/>
<path d="M63.5 46.2461C63.2236 46.2461 63.0001 46.4696 63.0001 46.746V48.7461C63.0001 49.0223 63.2236 49.246 63.5 49.246C63.7763 49.246 63.9999 49.0223 63.9999 48.7461V46.746C63.9999 46.4696 63.7763 46.2461 63.5 46.2461Z" fill="#002F7D"/>
<path d="M0.499917 46.2461C0.223548 46.2461 0 46.4696 0 46.746V48.7461C0 49.0223 0.223548 49.246 0.499917 49.246C0.776286 49.246 0.999959 49.0223 0.999959 48.7461V46.746C0.999959 46.4696 0.776286 46.2461 0.499917 46.2461Z" fill="#002F7D"/>
</g>
<defs>
<clipPath id="clip0">
<rect width="64" height="64" fill="white"/>
</clipPath>
</defs>
</svg>
